<?xml version="1.0" standalone="no"?>
<!DOCTYPE svg PUBLIC "-//W3C//DTD SVG 20010904//EN"
 "http://www.w3.org/TR/2001/REC-SVG-20010904/DTD/svg10.dtd">
<svg version="1.0" xmlns="http://www.w3.org/2000/svg"
 width="512.000000pt" height="512.000000pt" viewBox="0 0 512.000000 512.000000"
 preserveAspectRatio="xMidYMid meet">
<metadata>
Created by potrace 1.14, written by Peter Selinger 2001-2017
</metadata>
<g transform="translate(0.000000,512.000000) scale(0.100000,-0.100000)"
fill="#000000" stroke="none">
<path d="M2232 5033 c-48 -9 -85 -65 -146 -219 -33 -82 -62 -152 -65 -156 -4
-4 -51 21 -106 57 -187 120 -215 135 -251 135 -20 0 -45 -5 -57 -11 -52 -27
-66 -51 -88 -148 -12 -53 -23 -98 -25 -100 -3 -3 -36 26 -131 118 -57 55 -140
57 -194 5 -32 -31 -42 -65 -54 -195 -2 -20 -6 -65 -10 -100 -4 -35 -8 -70 -8
-77 -1 -20 -11 -12 -109 83 -104 102 -129 119 -175 124 -67 5 -142 -67 -138
-132 2 -28 85 -305 114 -380 6 -16 11 -30 11 -32 0 -2 -24 6 -52 17 -64 24
-119 19 -155 -14 -34 -31 -55 -82 -47 -116 6 -23 49 -129 114 -277 10 -22 49
-112 88 -200 38 -88 93 -214 122 -280 29 -66 60 -138 70 -160 62 -139 100
-235 105 -265 3 -19 10 -55 15 -80 20 -90 20 -101 2 -107 -23 -9 -118 -70
-150 -96 -188 -157 -276 -347 -268 -577 6 -152 41 -265 127 -407 43 -69 60
-92 139 -176 78 -84 167 -140 287 -182 1 0 5 -16 8 -34 23 -130 151 -294 380
-488 88 -75 249 -193 263 -193 6 0 12 -4 14 -8 2 -5 37 -28 78 -52 41 -24 100
-61 131 -82 49 -33 200 -108 214 -107 3 0 40 -8 83 -17 82 -19 316 -25 422
-12 112 14 256 70 358 139 25 17 91 58 146 92 89 53 232 151 246 167 3 3 15
13 28 22 38 26 153 129 229 206 124 124 195 234 209 320 4 27 13 46 23 49 50
17 149 67 184 95 54 41 187 180 187 194 0 2 15 26 33 52 151 219 182 501 82
729 -68 153 -214 295 -386 376 l-74 35 -3 198 c-1 110 -5 231 -9 269 -9 85 -9
294 0 550 4 105 10 271 13 370 3 99 7 223 9 275 13 311 7 353 -57 386 -58 30
-117 24 -158 -16 -9 -8 -47 -42 -85 -75 -38 -33 -92 -81 -119 -107 -28 -26
-53 -48 -56 -48 -5 0 -38 59 -162 290 -31 58 -70 121 -86 140 -28 33 -33 35
-91 35 -60 0 -64 -2 -98 -38 -19 -21 -38 -36 -41 -32 -76 76 -241 224 -263
236 -56 32 -141 0 -171 -63 -9 -19 -18 -61 -19 -92 -1 -31 -6 -59 -11 -62 -4
-3 -43 22 -86 55 -191 150 -246 191 -256 192 -6 0 -20 2 -31 3 -11 2 -30 1
-43 -1z"/>
</g>
</svg>
