<svg version="1.1" id="Слой_1" xmlns="http://www.w3.org/2000/svg" xmlns:xlink="http://www.w3.org/1999/xlink" x="0" y="0" viewBox="0 0 535 525" xml:space="preserve"><style>.st3{clip-path:url(#SVGID_4_)}.st7{clip-path:url(#SVGID_6_)}.st10{clip-path:url(#SVGID_8_)}.st15{fill:#ea0000}.st18{fill:#ffe3ca;stroke:#000;stroke-width:3;stroke-miterlimit:10}.st21{fill:#00abe6}.st22{fill:#fff}</style><defs><path id="SVGID_1_" d="M535.5 262.3c0 145.1-117.6 262.7-262.7 262.7S10.1 407.4 10.1 262.3 127.7-.3 272.8-.3c24.6 0 48.4 3.4 71 9.7 110.6 30.9 191.7 132.5 191.7 252.9z"/></defs><clipPath id="SVGID_2_"><use xlink:href="#SVGID_1_" overflow="visible"/></clipPath><path clip-path="url(#SVGID_2_)" fill="#161616" d="M-22.3-50.8h592.8v624.3H-22.3z"/><g id="_x31_"><defs><path id="SVGID_3_" d="M378.8 86.5C379 86 398 72 412 72c0 0-16 7-19 9 0 0 53 0 58 46 7 17 29 89 19 126 4 19 19 30 21 59s-14 43-43 42c-9 2-11 6-17 6s-84.7-24.1-85.3-68 14.3-58 14.3-58l3-30s39-40 16-92l-.2-25.5z"/></defs><clipPath id="SVGID_4_"><use xlink:href="#SVGID_3_" overflow="visible"/></clipPath><path d="M388 57s49-2 50 0 27 66 27 66l20 79 12 85 11 53s12 40-17 37-78-12-81-13-44.5-16.5-44.5-16.5l-35-76L388 57z" clip-path="url(#SVGID_4_)" fill="#fff0b8"/><path d="M514.5 310.5c-2-4-42.1-74.5-42.1-74.5s-15.9-21.5-15.9-22.5-12 21-12 21-8-25-9-25-6 19-8 20-6-32-6-32-16 56-18 55-3-22-3-22l-9.8 3.6 5.6-22.6s-16.8 9-17.8 10 0-10 0-10l-12.2 12.4-30.8 43.6-16 68 37 16 96 35s58-13 62-15 2-57 0-61z" clip-path="url(#SVGID_4_)" fill="#00b7d7"/><path d="M386.7 116.4c21.4 29 14.9 66.5 7.1 99-2.1 8.7-4 17.5-7.1 25.9-2.8 7.4-6.6 14.4-9.2 21.9-4.7 13.2-3.8 27.5 4.3 39.1 8.8 12.6 25.5 17 33 30.5.9 1.7 3.5.2 2.6-1.5-6.4-11.5-19.1-16.3-28.3-25.1-12.9-12.3-13.8-29.7-7.5-45.4 3-7.5 6.8-14.7 9.3-22.4 2.8-8.5 4.7-17.3 6.7-25.9 3.8-16.4 7.2-33.2 6.7-50.2-.5-16.9-4.9-33.8-15-47.5-1.1-1.4-3.7.1-2.6 1.6z"/><path d="M402.4 272.9c.9 9.8 4 19.3 9.4 27.5 2.9 4.4 7.3 8.1 9.1 13 2.2 5.9.7 12.5-3.4 17.2-1.3 1.5.9 3.6 2.1 2.1 6-6.9 7.1-16.8 2-24.5-3.4-5.2-7.7-9.6-10.5-15.2-3.2-6.3-5-13.2-5.7-20.2-.2-1.8-3.2-1.8-3 .1z"/><path d="M422.9 283.8c2.3 8.6 1.9 17.2-.9 25.6-.6 1.8 2.3 2.6 2.9.8 3-8.9 3.3-18.1.9-27.2-.5-1.8-3.4-1-2.9.8zM438.3 259.8c1.3 15.3 7.8 29.1 12.3 43.6 3.9 12.8 10.2 40-5.8 47.1-1.8.8-.2 3.4 1.5 2.6 14.6-6.4 12.3-27.6 9.9-40.2-3.6-18.1-13.3-34.5-14.8-53.1-.2-1.9-3.2-1.9-3.1 0zM470.7 249.3c-4.4-9.4-6.1-19.6-7.6-29.8-.3-1.9-3.2-1.1-2.9.8 1.6 10.5 3.3 20.9 7.9 30.5.8 1.8 3.4.3 2.6-1.5zM445.3 119.6c-7.1-7.9-14.5-15.4-22.3-22.6-1.4-1.3-3.5.8-2.1 2.1 7.8 7.2 15.2 14.7 22.3 22.6 1.3 1.5 3.4-.6 2.1-2.1z"/><use xlink:href="#SVGID_3_" overflow="visible" fill="none" stroke="#000" stroke-width="3" stroke-miterlimit="10"/><path d="M360 91s16-7 20-4 5 3 5 3l2 9s0 6-6 9-9 6-9 6l-12-23z" fill="#008fc9" stroke="#000" stroke-width="3" stroke-miterlimit="10"/><defs><path id="SVGID_5_" d="M214.5 89.5s-19-18-45-3-42 67-42 67-36 154-28 176 15 39 47 36 30-3 30-3l30-42 1-42 1-66 11-95-5-28z"/></defs><clipPath id="SVGID_6_"><use xlink:href="#SVGID_5_" overflow="visible"/></clipPath><path d="M143.5 43.5c1 0 74 2 74 3s11 82.9 11 82.9-3 172.1-4 171.1-166-38-166-38l85-219z" clip-path="url(#SVGID_6_)" fill="#fff0b8"/><path d="M167.5 226.5c4 3 4 23 4 23l14-20 7 35 13.2-2.1 3.8 50.1s-4 29-4 31-58 31-62 32-67-8-67-8-9-23-5-36 31-102 31-102l65-3z" clip-path="url(#SVGID_6_)" fill="#ff5cac"/><path d="M196.7 118.9c-19.7 20.8-14.7 53.6-10.8 79.4 1.1 7.5 3 14.8 4.3 22.2 1.5 8 1.1 15.7 1.2 23.8.1 7.6 1.9 14.9 2.6 22.5.7 8 .4 16 0 24-.1 1.9 2.9 1.9 3 0 .3-7.1.7-14.1.2-21.2-.5-7.2-2.2-14.3-2.7-21.5-.5-7.1.3-14.3-.4-21.4-.7-6.7-2.4-13.2-3.7-19.7-3-14.8-4.8-30.3-4.9-45.3-.1-14.6 2.9-29.6 13.3-40.5 1.4-1.6-.7-3.7-2.1-2.3zM167.4 250.9c2.4 15.6-.7 31.1-4.9 46.1-.5 1.9 2.4 2.7 2.9.8 4.4-15.6 7.4-31.5 4.9-47.7-.3-1.9-3.2-1.1-2.9.8zM127.8 300.9c-1 12.1-.6 24.1 1.2 36.1 1.3 9 2.5 20 10.2 25.9 1.5 1.2 3-1.4 1.5-2.6-7.8-6-8.5-20.4-9.5-29.3-1.1-10-1.2-20.1-.4-30.1.1-2-2.9-2-3 0zM203.6 96.4c-6.1-2-12.2-2.6-18.6-1.7-1.9.2-1.9 3.3 0 3 6.1-.8 11.9-.3 17.8 1.6 1.9.6 2.7-2.3.8-2.9z"/><use xlink:href="#SVGID_5_" overflow="visible" fill="none" stroke="#000" stroke-width="3" stroke-miterlimit="10"/><defs><path id="SVGID_7_" d="M246.5 265.5v34s-20 18-58 20-68 68-68 68l-19 43s64 57 182 57c88-3 126-30 126-30s34-7 51-32c0 0-21-68-33-78s-10-13-36-22-68-24-70-30-1-36-1-36l-74 6z"/></defs><clipPath id="SVGID_8_"><use xlink:href="#SVGID_7_" overflow="visible"/></clipPath><path d="M214.5 249.5l129 8s29 42 30 46 0 33.9 0 33.9l-13 36.1s-53.2 15-61.6 16c-8.4 1-97.4-16-97.4-16l13-124z" clip-path="url(#SVGID_8_)" fill="#ffe3ca"/><path d="M120.5 363.5s3 56 151 58 174-51 174-51l-36-59-55-12-2 14s0 67-69 66-61-80-61-80l-70 22-32 42z" clip-path="url(#SVGID_8_)" fill="#cb0200"/><path d="M214 316.7c1.4 14.7 4.6 29.5 10.3 43.2 5.2 12.6 15.4 19.9 27.7 25.2 25.2 10.8 54.3 8.5 78.1-4.9 12.2-6.8 24.1-16.6 27.8-30.6.5-1.9-2.4-2.7-2.9-.8-4.1 15.4-18.8 25.5-32.5 32-14.6 6.9-31.1 9.7-47.1 7.7-15.4-1.9-35.2-8.6-44.4-22-4.6-6.7-6.9-15.2-9.1-23-2.4-8.7-4-17.7-4.9-26.7-.2-2-3.2-2-3-.1zM363.3 327.9c0-3.5.3-7 .9-10.4.3-1.9-2.5-2.7-2.9-.8-.7 3.7-1 7.5-1 11.2 0 2 3 2 3 0z"/><path d="M106 364c2 0 54 29 59 32s98 18 99 21 82-8 82-8l99-38s19-18 21-7 39 103 25 122-83 41-106 45-279-34-279-34-42-71-38-74 38-59 38-59z" clip-path="url(#SVGID_8_)" fill="#fff"/><path d="M377.3 386.5c14.2 21.7 29.7 46.2 24.5 73.4-.4 1.9 2.5 2.7 2.9.8 5.4-28.1-10-53.2-24.8-75.7-1-1.6-3.6-.1-2.6 1.5zM358.4 346.8c1.4-5.7 2.9-11.3 4.5-16.9.5-1.9-2.4-2.7-2.9-.8-1.6 5.6-3.1 11.2-4.5 16.9-.5 1.9 2.4 2.7 2.9.8z"/><path d="M394.4 406.5v-14.7c0-1.9-3-1.9-3 0v14.7c0 1.9 3 1.9 3 0z"/><use xlink:href="#SVGID_7_" overflow="visible" fill="none" stroke="#000" stroke-width="3" stroke-miterlimit="10"/><path d="M222 88s-10-2-12 0-9 11-9 16 7.8 10.7 7.8 10.7L222 88z" fill="#c1035f" stroke="#000" stroke-width="3" stroke-miterlimit="10"/><path d="M215.5 241.5c1 0 11 8 11 8l33 33s9 6 20 5 9 2 21-7 46-39 46-39l11-48-27-86-98 1-24 48v75l7 10z" fill="#fff4ea" stroke="#000" stroke-width="3" stroke-miterlimit="10"/><path d="M226 205.7c0 .7-1.1 1.3-2.5 1.3-4.1 0-3.2 3.6 1.4 5.8l3.9 1.9 1.7-3.8c1-2.1 1.5-4.5 1.2-5.3-.8-1.9-5.7-1.8-5.7.1zM289.2 213.6c-.7.8-2.2 1.4-3.3 1.4-1.1 0-3.4.7-5.1 1.6-2.9 1.5-3.3 1.4-8-1-6.8-3.5-7.8-3.3-3.8.9 5.2 5.3 8.6 6.1 15.1 3.2 3-1.3 6-3.1 6.8-4.1 1.8-2.1.2-4-1.7-2zM325.5 220.1c.4 1.5-.2 4.6-1.4 7.9-1.1 3-1.8 5.6-1.5 5.9.7.8 1.9-1.4 4-7.5 1.7-5.2 1.7-5.5 0-7.2-1.6-1.6-1.7-1.6-1.1.9z"/><path d="M255 235h4l19 7s7 2 8 2 2 8 2 8-3 4-3 5-7 2-7 2l-12.3-1.6s-3.7-.4-4.7-1.4-8-9-8-11 2-10 2-10z" fill="#ff9490"/><path d="M239.7 224.1c.7.9 3.3 7.7 5.7 15.2 5.5 16.5 7.7 21.3 12.1 26.5 4.2 4.9 9.8 7.2 19 7.9 16.7 1.3 26-6.2 34.1-27.4 2-5.4 5-12.6 6.7-16.1 1.6-3.4 2.7-6.5 2.4-6.8-.3-.3-1.6 0-2.8.7-1.3.7-5.3 1.2-8.9 1.1-3.6-.1-19.3-.3-35-.4-15.7-.2-29.8-.7-31.5-1.2-2.6-.8-2.8-.7-1.8.5zm63.8 9.4c-7.7 4.7-12.8 5.8-24.9 5.3-9.1-.4-11.9-.9-15.6-2.8-2.5-1.2-5.7-2.3-7.2-2.2-1.5 0-3.1-.4-3.4-1-.5-.8 2.4-.9 10.2-.3 13.5 1 18.6 1 29.4-.3 4.7-.5 10.1-1 12-1.1l3.5-.1-4 2.5zm-42.6 4.5c2.1 1 7 2.6 10.8 3.5 8.1 1.8 13.3 4.7 13.3 7.4 0 4-5.7 6-10.6 3.6-5.3-2.5-5.2-1.2.1 1.6 2.5 1.3 4.5 2.7 4.5 3 0 1.1-11.4-1.2-13.7-2.7-1.3-.8-2.3-1.2-2.3-.9 0 1.8-4.3-2.2-6-5.5-2.5-4.9-2.7-12-.3-12 .2 0 2.1.9 4.2 2zm37 17.6c-4.4 4.8-9.7 6.8-17.9 6.8-7.6.1-15.7-2.1-17.9-4.8-.7-.9 1.1-.7 6.2.7 5.1 1.3 9 1.7 13.3 1.3 7.1-.7 14.7-3.1 16.5-5.2.6-.8 1.4-1.4 1.7-1.4.3 0-.5 1.2-1.9 2.6zM271.5 266c1.1 1.8-2.6 2.3-4.3.6-1.5-1.5-1.4-1.6 1-1.6 1.5 0 3 .5 3.3 1z"/><path class="st15" d="M245 231c0 1 5 18 5 18s5 9 5 10 3 5 4 6 4 3 9 5 14 2 16 2 7-3 7-3l7-5 5-6 5-10 4-11-2 1s-6 16-8 17-11 9-15 9h-13s-8-1-9-2l-7-7-7-11s-3-7-3-8-3-5-3-5z"/><path d="M235.6 234.2c1.1 3.6 3.5 8 4.1 7.5.6-.6-3.3-9.7-4.2-9.7-.4 0-.3 1 .1 2.2zM286.8 336.8c-2.3 1.4-3.2 1.5-5.9.5-3.5-1.3-5.3-.8-2.9.8 3.1 1.9 6.3 2.1 9.6.6 1.9-.9 3.4-2.1 3.4-2.7 0-1.3-1-1.1-4.2.8zM40.8 198.4c4.4 13.8 17.1 31.3 29.2 40.2l3.4 2.5-1.9 4.1c-1 2.3-2.2 4.3-2.6 4.6-.4.2-3.3-1.7-6.4-4.1-16.5-13.4-26.1-29.5-29-48-1.3-8.5-.8-13.9 1.8-19.9l1.7-3.9.7 8.4c.3 4.4 1.8 11.7 3.1 16.1zM26.9 206.7c.4 3.3 2 9.4 3.7 13.5 1.6 4.1 2.8 7.8 2.5 8-.6.6-11.9 1.8-13.2 1.4-1.7-.6-1.3-4.3 1.9-17.2 1.7-6.4 3-12 3-12.2 0-.3.4-.3.9 0 .2.3.9 3.3 1.2 6.5zM40.3 237.4c2.3 3 7.2 8.5 11 12.1 3.7 3.7 6.9 6.8 6.9 7 0 .1-3.8.6-8.6 1s-9.9.8-11.2 1c-2.6.3-2.6.2-3.3-7.1-.8-10.5-.8-21.6.2-20.5.4.6 2.7 3.5 5 6.5zM9.9 264c5.6 14.4 14.4 24.4 31.4 36 .5.4-2.1 5.4-2.9 5.4-1.7 0-12.7-9.1-18-14.9-10.3-11.3-16.3-27.4-14.8-39.9l.7-5.9.7 6.9c.4 3.8 1.7 9.4 2.9 12.4zM71.4 265.4c1.7 1 6.3 3 10.1 4.4 3.9 1.4 7.7 2.8 8.5 3.1.8.3-3.9 2.5-10.5 4.9s-12.3 4-12.7 3.6c-.6-.6-3.8-17.1-3.8-20 0-1 .6-.9 2.7.4 1.4 1 4 2.6 5.7 3.6z"/><path d="M33.5 261.2c0 .2.9 6.1 1.9 13.3l1.7 13-2.9-2.1c-3.7-2.7-12.3-13.2-15.8-19.4l-2.8-5h8.9c5 0 9 .1 9 .2zM107.8 276.4c5.4.6 9.9 1.3 10.2 1.5 1.1 1.2-2.3 4.2-8.9 8-4 2.3-7.8 4.7-8.4 5.3-1.8 1.8-2.7 1.3-2.7-1.7 0-1.5-.6-5.5-1.4-9-1.1-5.4-1.1-6.2.2-5.7.8.3 5.7 1 11 1.6zM67.3 294.5c1.4 4.5 2.4 8.4 2.2 8.6-1.8 1.8-28.2-9.4-29.2-12.4-.2-.7 3.4-1.7 9.4-2.6 16-2.5 14.5-3 17.6 6.4zM98.8 299c.7 2.4.8 4.1.2 4.7-.5.5-6.3 1.2-12.7 1.4-8.1.3-11.5.1-10.8-.6.9-.9 20-9 21.6-9.1.3-.1 1.1 1.6 1.7 3.6zM219 163s4-6 9-5 35 17 36 17 3 1 2 1-4 4-6 5-2 2-5 0-19-12-19-12-6-5-10-5-7 2-7 2v-3z"/><path d="M216.7 189.4c-.2.1.8 7.1.8 8.1s-2 4-2 7-2 4 0 4 4-3 5-4 2-1 2-1l3 1s4-3 5-3 3 1 4 2 0 1 1 2 3 1 3 1l5-5s-16-4-17-5-9.8-7.1-9.8-7.1z" fill="#ff5cac"/><path class="st15" d="M250 228s11-2 16-2h30l12 2s-10 2-11 2-11 2-13 2h-6c-2 0-3-1-6-1s-7-1-9-1-13-2-13-2z"/><path d="M308.3 201.9c1.3-.4 10.3.6 10.3.6s7 0 9-1 2-2 3-1 0 1 3 2 3 2 3 1v-3s1-1 3 1 1 4 2 4h2l-1-7 2 1 3 2c3 2 6 3 4 0s-2-1-3-5 0-7-2-9-3-5-3-5-2 3-4 5-8 6-8 6-3 2-4 3-5 1-6 2-9 3-9 3l-4.3.4z" fill="#00b7d7"/><path d="M287 171s6 7 7 7 19-9 24-11 8-4 11-4 14 4 14 4-10-10-16-10-23 10-40 14zM230 198s-8-8-7-10 7-6 10-7c8-3 22 1 26 14v3s-11 4-17 3c0 0 14 3 20-2s-10-21-19-22-22 5-22 5l-4-1 1 2-3 2s-.3 2.1.4 3.1c.6.9 10.6 9.9 14.6 9.9zM328.3 196.7s7.7-8.2 6.7-10.2c-1.1-2-7.2-5.8-10.2-6.7-1.8-.6-9.1-2.5-15.7 1.2-4.2 2.3-8.4 8.5-9.8 13.6l.1 3s11.1 3.7 17.1 2.5c0 0-15.2 4.7-21.4-.1-2-11 9-24 19.6-23.9 9-1.3 22.1 4.3 22.1 4.3l4-1.1-.9 2 1.3.8 4.9-.2s-2.8 3.4-3.4 4.3c-.7 1.1-10.4 10.4-14.4 10.5zM388.4 116.9c1.9 0 1.9-3 0-3-2 0-2 3 0 3zM226.1 333.5c11.2-1.1 22.1 6.7 33.4 4.4 1.9-.4 1.1-3.3-.8-2.9-10.8 2.2-21.7-5.5-32.6-4.5-1.9.2-1.9 3.2 0 3z"/><path class="st18" d="M288.5 436.5s-6-2-7 1-3 4-3 6 0 2 2 5 4 4 4 4 6 4 8 3 5-3 6-4 1-4 1-5-5-7-5-7l-6-3z"/><path d="M288.8 440.3c-1.7.7-2.9 2.2-3.6 3.9-.6 1.6-1.1 3.9.2 5.2 1.3 1.4 3.4-.7 2.1-2.1.2.3.2.2.1-.3 0-.3.1-.6.1-1 .1-.5.2-.9.5-1.4.5-.9 1.2-1.5 2.1-1.9 1.8-.6.3-3.2-1.5-2.4zM294.1 451.1c2-.4 3.3-2.1 3.5-4.1.1-.8-.7-1.5-1.5-1.5-.9 0-1.4.7-1.5 1.5 0-.3-.2.5-.1.2-.1.1-.1.3-.2.4.1-.2 0 0-.1.1s-.2.2-.3.2c.2-.1-.1 0-.1.1-.1 0-.3.1-.1.1-.1 0-.3.1-.4.1-.8.2-1.2 1.1-1 1.8.2.9 1 1.2 1.8 1.1z"/><g><path d="M310.8 335.7c12.8-5.9 27.2-2.7 40.7-3.8 1.9-.1 1.9-3.2 0-3-14.2 1.1-28.8-2-42.2 4.2-1.7.8-.2 3.4 1.5 2.6z"/></g><g><path d="M353.9 330.6h-1.2" fill="#fff0b8"/></g><path d="M283 66s-34-11-61 19c-23 42-22 74-21 83-2 13-6 36-2 51s5 27 6 37c0 0 1 13-6 26s-10 41 18 48c-1-6-11-12-7-30s14-25 14-40-10-41-9-65 6-89 50-80h19s40-4 58 44c21 47 2 99 2 99s-34 64 3 77c0 0-12-17-3-39s23-51 23-86v-16s21-27 7-78-73-59-91-50z" fill="#fff0b8" stroke="#000" stroke-width="3" stroke-miterlimit="10"/><path d="M279.6 70.5c2.5 1.9 4 1.9 2.4 0-.7-.8-2-1.5-2.8-1.5-1.3 0-1.2.3.4 1.5zM289.8 71.2c-1.6.5-2.8 1.4-2.8 1.9 0 .4 1.2.4 2.8-.2 1.5-.6 4.5-1.4 6.7-1.9l4-.8h-4c-2.2 0-5.2.4-6.7 1zM276.6 76.4c1.8.8 3.5 1.9 3.8 2.5.4.6 1.3 1.1 1.9 1.1.7 0-.1-1.2-1.6-2.5-1.5-1.4-3.8-2.5-5-2.5-1.8.1-1.7.3.9 1.4zM290.8 76.7c-2.1.8-3.8 1.9-3.8 2.5 0 .5.5.6 1.1.2.7-.4 3.7-1.5 6.8-2.5 4.5-1.4 5-1.7 2.6-1.8-1.6 0-4.7.7-6.7 1.6zM273.5 82c.3.5 1.2 1 1.9 1s2.3 1.1 3.6 2.5c2.5 2.7 3.4 2.7 2.4.1-.6-1.7-5.3-4.6-7.4-4.6-.6 0-.8.4-.5 1zM289.4 83.4c-3 1.4-5.4 3.6-3.7 3.6 1.1 0 7.3-3.8 7.3-4.5 0-.6 0-.7-3.6.9zM277.5 91c1 1.1 2.3 2 2.8 2 .6 0 .2-.9-.8-2s-2.3-2-2.8-2c-.6 0-.2.9.8 2zM289.3 90.3c-1.7.7-3.5 1.6-4 2.1s0 .6 1.2.2c1.1-.4 3.2-1 4.8-1.3 1.5-.3 3-1 3.3-1.4.7-1.2-1.4-1-5.3.4zM275 95c0 .4.8 1 1.8 1.3.9.2 2.6.8 3.7 1.3 1.7.7 1.8.6.7-.8-1.3-1.7-6.2-3.1-6.2-1.8zM288.1 96.3c-1.9.7-3.6 1.7-3.8 2.3-.4 1.1 9-1.6 10.4-3 1-1-2.9-.6-6.6.7zM287.7 100c-3 .9-5.7 2.8-5.7 4 0 .4 1.7 0 3.8-1 2-.9 4.8-2.2 6.2-2.8 2.1-.9 2.2-1.1.5-1-1.1 0-3.3.4-4.8.8zM268.4 103.2c1 .7 3.1 2.3 4.6 3.5 3.2 2.7 4.2 2.9 3.4.9-.7-1.8-4.1-4.1-7.4-5-2.3-.6-2.3-.5-.6.6zM283.1 109.6c-1.9.8-3.1 1.7-2.8 2 .3.3 1.4.1 2.5-.5s4.5-1.2 7.5-1.3c3.1-.1 5.3-.6 5.1-1-.8-1.3-8.7-.8-12.3.8zM234 180c-.7.7-5 12 5 16s16-3 16-10-18-9-21-6zM304 182s-2 17 11 15 11.8-18.2 9.4-20.1C322 175 304 182 304 182z"/><path class="st21" d="M238 188s4 4 6 3 4-1 6-3 3-2 3 1-5 8-8 8-10-4-10-7 3-2 3-2zM314 190s-4-2-5-1-1 4 0 5 5 2 6 2 2 0 4-1c2 0 5-4.6 5-6 0-1.3-1-2-1-2s-1-1-2 0l-2 2c-1 1-2 1-3 1h-2z"/><path class="st22" d="M237 181s-2 1-1 2 1 2 2 2 2 1 2-1-.5-3.8-.2-3.9c.2-.1-2.8.9-2.8.9zM308 181s-1 .3-.5 1.2c.5.8.5.8.5 1.8s0 0 1 1 3 1 3 0v-3s-2-1.5-1.5-1.7c.5-.3-.8.4-.8.4l-1.7.3z"/><g><defs><path id="SVGID_9_" d="M47.5 144.5l-45 101s-9 41 39 66c36 14 65-3 65-3l62.9-67.8-121.9-96.2z"/></defs><clipPath id="SVGID_10_"><use xlink:href="#SVGID_9_" overflow="visible"/></clipPath><path d="M28 170l4 37 11 27s15 17 17 18 37 18 37 18l32.7.9L159 264l8.3-20.1L110 240s-59-54-60-56-6.5-34.5-6.5-34.5L28 170z" clip-path="url(#SVGID_10_)" fill="#ec9f52" stroke="#000" stroke-width="3" stroke-miterlimit="10"/><path d="M2 223c0 2 4 28 4 31s11 33 16 36 51 21 51 21l39-2 38-30s-16-10-18-9-58-11-58-11-28-25-29-26-23-64-23-64L7 203l-5 20z" clip-path="url(#SVGID_10_)" fill="#fff" stroke="#000" stroke-width="3" stroke-miterlimit="10"/><path d="M6.5 227.5s2 97 108 77l-10 13-32 8-50-11s-23-28-21-29-3-43-3-43l8-15z" clip-path="url(#SVGID_10_)" fill="#f29b54" stroke="#000" stroke-width="3" stroke-miterlimit="10"/><path d="M25.5 178.5s-7 52 41 81 93 8 93 8l3-6s-52 20-96-13-35-92-35-92l-6 22z" clip-path="url(#SVGID_10_)" stroke="#000" stroke-width="3" stroke-miterlimit="10"/><path clip-path="url(#SVGID_10_)" fill="#cb0200" stroke="#000" stroke-width="3" stroke-miterlimit="10" d="M25.5 200.5l-7 27h17v31l26.3-2 4.7 25 29.3-9.7 2.7 18.7 24-12 .7 12-20.7 13-3-8-29 8-4-18-30.1 5.7-1.9-28.7-20-1v-29l-7.6.1 18.2-37.9z"/><use xlink:href="#SVGID_9_" overflow="visible" fill="none" stroke="#000" stroke-width="3" stroke-miterlimit="10"/><path d="M152.8 141c32.6 27.6 41.2 71 19.2 96.9s-66.2 24.6-98.7-3c-30.4-25.7-39.9-65.2-23.2-91.4 1.2-1.9 2.5-3.7 4-5.5 21.9-25.9 66.1-24.6 98.7 3z" fill="#cf6d00" stroke="#000" stroke-width="3" stroke-miterlimit="10"/><g><path d="M81.7 161.7c-.4 11.3-2.4 22.3-5.8 33-.6 1.8 2.3 2.6 2.9.8 3.6-11 5.5-22.3 5.9-33.8 0-1.9-3-1.9-3 0z"/><path d="M93.1 181.7c-8.7-3.5-17.6-6.3-26.7-8.6-1.9-.5-2.7 2.4-.8 2.9 9.1 2.2 18 5.1 26.7 8.6 1.8.7 2.6-2.2.8-2.9zM128.2 144c-1.8 8-3.6 16.1-5.3 24.2-.4 1.9 2.5 2.7 2.9.8 1.7-8.1 3.4-16.1 5.3-24.2.4-1.8-2.5-2.6-2.9-.8z"/><path d="M141.9 156.5c-9.6.2-19.6-3.1-29-5.1-1.9-.4-2.7 2.5-.8 2.9 9.7 2.1 19.8 5.4 29.8 5.2 1.9 0 1.9-3 0-3zM92.6 204.6c-3.9 2.1-4.6 6.5-6.6 10.1-.9 1.7 1.6 3.2 2.6 1.5 1.7-3 2.3-7.2 5.5-9 1.7-.9.2-3.5-1.5-2.6zM145.9 175.1c3.1-.8 6.2-1.6 9.3-2.2 1.9-.4 1.1-3.3-.8-2.9-3.1.6-6.2 1.4-9.3 2.2-1.8.5-1 3.4.8 2.9z"/><path d="M89.8 212c8.1 5 15.7 11.2 25.8 10.1 8.7-1 18.3-2.7 25.9-7.2 6.6-3.9 11.4-10.4 13.4-17.8 2.4-8.7 0-16.9-3.5-24.9-.8-1.8-3.4-.2-2.6 1.5 3.4 7.5 5.4 15.2 3 23.3-2.2 7.5-7.6 13.4-14.6 16.7-6.9 3.2-15.9 5.1-23.5 5.5-8.3.4-15.6-5.6-22.4-9.8-1.7-1-3.2 1.6-1.5 2.6z"/></g></g><path d="M121.6 287.4l265.8 231.3c1.8 1.5 4.2 2.2 6.4 1.6 2.7-.7 5.6-2.8 5.6-8.8 0-10.3-234.9-210.1-265.7-236.2-2-1.7-4.9-2.2-7.4-1.2l-2.7 1.1c-5 1.9-6.1 8.6-2 12.2z" fill="#002254" stroke="#000" stroke-width="3" stroke-miterlimit="10"/><path class="st18" d="M159.3 290.7c-3.9.8-2.5 2.2 2.5 2.5l4.7.3-2.7 1.9c-1.5 1-4.2 1.9-5.9 2-2.4.1-4.4 1.4-8.5 5.7-4.6 4.8-5.8 5.5-8.4 5.1-1.8-.3-3 0-3 .7 0 .6.9 1.1 1.9 1.1 2 0 5.6 3.8 6.6 6.9.3 1-.6 4.3-2.1 7.5l-2.6 5.6-4.4-9.1c-2.4-4.9-4.4-10.1-4.4-11.4 0-2.4 12-17.4 14.9-18.7.9-.4 12.6-.3 11.4-.1z"/><g><path class="st18" d="M297.4 427.1c1.5 1.7 2.6 4.3 2.6 5.9 0 2.4-.5 3-3.1 3.5-1.8.4-2.7 1-2.1 1.4.7.4.9 2.1.5 4.4-.3 2-1 3.4-1.4 3.1-1.1-.6-6.3-10.8-7.3-14.1-.6-1.7-.1-2.9 2-4.8 3.5-3.3 5.7-3.2 8.8.6zM307.1 440.1c4.4 3.1 5.3 5.4 3.2 7.9-1 1.1-2.1 3.3-2.4 4.8-.5 2.4-.7 2.5-1.4.8-.5-1.1-2.4-3.3-4.2-4.9-3.7-3.2-4.1-5.2-1.7-8.5 1.9-2.7 2.8-2.7 6.5-.1zM319.4 451.5c3.1 2.9 3.3 4.6.6 7-1.8 1.6-2.1 1.7-4.5.1-3-1.9-4.2-6-2.5-8.1 1.7-2.1 3.3-1.9 6.4 1zM330.5 461c2.4 2.5 2.6 3 1.2 3.6-4.1 1.5-9.2-2.4-7.2-5.6 1.1-1.7 3-1.1 6 2z"/></g><path class="st18" d="M169 303.1c3 1.4 4 2.3 3 2.7-.8.3-1.8 1-2.2 1.6-.6.8-1.1.7-1.7-.3-1.1-1.7-2.3.1-1.5 2.3.4 1-2.3 7.4-6.7 16l-7.3 14.3 2.9 4.4c2.7 4.2 4.8 4.2 2.6 0-.6-1.1-1.1-2.8-1.1-3.9 0-2.9 15.2-31.2 16.7-31.2 1.9 0 9.6 4.5 11.6 6.8 1.6 1.7 1.4 1.8-1.8 1.8-1.9 0-3.5-.4-3.5-.8s-.4-.8-1-.8c-.5 0-1 1.3-1 2.8 0 1.6-2 6.4-4.5 10.8-4.2 7.3-5.7 12.4-3.7 12.4.5 0 3.2-4.2 6.1-9.4 7.4-13.3 7.4-13.4 14.4-9 3.1 2 5.7 3.8 5.7 4 0 .8-5.5-.9-6.1-1.8-.3-.5-1.3.8-2.1 2.9-.9 2.1-2.7 6.4-4.2 9.5L181 344l2.3-.3c1.7-.2 2.3.4 2.5 2.5.2 1.6.8 2.8 1.4 2.8 1.7 0 13.9 8.6 19.1 13.4 5.4 5.1 5.4 4.2.6 19-1.6 4.9-2.9 9.5-2.9 10.3 0 1.9-27.5 78.8-27.5 78.8s-35.2-15.4-37-16c-.9-.3 49.3-69.6 48.3-69.9-9.3-13.1-11.4-14.9-27.3-29.2-12.1-10.9-17.1-15.9-17.3-17.7-.3-2.7 13.8-31.7 17-34.9 2.3-2.3 3.3-2.2 8.8.3z"/><g><path d="M293.5 421.5s18-12 20-12 4 3 8 6 4 3 8 5 6 4 7 5 7 3 8 4-1 1 3 5 3 4 7 9 3 6 8 10 9 7 9 9v6c0 2-5 7-5 7h-2l-20-17-8 4-8-6-13-11s-9-6-10-8-5-8-7-11-5-5-5-5z" fill="#cb0200" stroke="#000" stroke-width="3" stroke-miterlimit="10"/><path d="M305.6 434.3c2.1-1.8 4.3-3.4 6.7-4.8 1.7-1 .2-3.6-1.5-2.6-2.6 1.5-5.1 3.3-7.3 5.3-1.5 1.2.6 3.3 2.1 2.1zM317.6 444.4c1.9-2.7 4.3-4.9 7-6.6 1.6-1 .1-3.6-1.5-2.6-3.2 2-5.9 4.6-8.1 7.7-1.1 1.6 1.5 3.1 2.6 1.5zM328.3 453.1c2.5-2.2 5.6-4.5 9.1-3.5 1.9.5 2.7-2.4.8-2.9-4.7-1.2-8.7 1.4-12.1 4.3-1.4 1.2.7 3.3 2.2 2.1zM349 440c-1.1-2.5-2-5.1-2.9-7.7-.6-1.8-3.5-1-2.9.8 1 2.8 2.1 5.6 3.2 8.4.7 1.7 3.3.2 2.6-1.5zM364.8 457.9c-.8 4.2-2.8 7.7-5.9 10.6-1.4 1.3.7 3.4 2.1 2.1 3.5-3.2 5.8-7.3 6.7-11.9.3-1.9-2.5-2.7-2.9-.8z"/></g></g></svg>