<svg version="1.1" id="Слой_1" xmlns="http://www.w3.org/2000/svg" xmlns:xlink="http://www.w3.org/1999/xlink" x="0" y="0" viewBox="0 0 525 526" xml:space="preserve"><style>.st1{fill:#93def9}.st3{fill:#00b8d9}.st4{fill:#1f191a}.st6{fill:#fff}</style><defs><path id="SVGID_1_" d="M525.2 263c0 145.1-117.6 262.7-262.7 262.7S-.2 408.1-.2 263 117.4.3 262.5.3c24.6 0 48.4 3.4 71 9.7 110.6 31 191.7 132.5 191.7 253z"/></defs><clipPath id="SVGID_2_"><use xlink:href="#SVGID_1_" overflow="visible"/></clipPath><path clip-path="url(#SVGID_2_)" fill="#161616" d="M-32.6-50.1h592.8v624.3H-32.6z"/><g><path class="st1" d="M407.6 100.7H149.1c-10.3 0-18.8 8.4-18.8 18.8v41.2h240.6c10.3 0 18.8 8.4 18.8 18.8v198.6h17.9c10.3 0 18.8-8.4 18.8-18.8v-240c-.1-10.2-8.5-18.6-18.8-18.6z"/><path class="st1" d="M112.3 160.6h258.5c10.5 0 18.8 8.4 18.8 18.8v239.7c0 10.5-8.4 18.8-18.8 18.8H112.3c-10.5 0-18.8-8.4-18.8-18.8V179.4c0-10.4 8.4-18.8 18.8-18.8z"/><path d="M307.2 338l-35.2-5.7c-1.6-.3-3.1.9-3.4 2.5v.9l5.7 35.2c.3 1.6 1.8 2.8 3.4 2.5.6-.1 1.2-.4 1.6-.9l9.6-9.6 16 16c3 2.8 7.6 2.8 10.6 0 2.8-2.8 2.8-7.6 0-10.5l-16-16 9.6-9.6c1.2-1.2 1.2-3.1 0-4.3-.7 0-1.3-.3-1.9-.5z" fill="#e9e9ea"/><path class="st3" d="M407.6 100.7H149.1c-10.3 0-18.8 8.4-18.8 18.8v19h296.1v-19.1c-.1-10.3-8.5-18.7-18.8-18.7z"/><path class="st4" d="M309.9 385.1c-3 0-5.8-1.2-7.9-3.3l-13.3-13.3-6.9 6.9c-2.7 2.7-6.9 2.7-9.6 0-1-1-1.6-2.2-1.9-3.7l-5.7-35.2c-.6-3.7 1.9-7.2 5.7-7.8.7-.1 1.5-.1 2.1 0l35.2 5.7c3.7.6 6.3 4 5.7 7.8-.3 1.3-.9 2.7-1.9 3.7l-6.9 6.9 13.3 13.3c4.3 4.3 4.3 11.5 0 15.8-2.1 2-4.9 3.2-7.9 3.2zm-21.2-25.6c1 0 1.9.4 2.7 1l16 16c1.5 1.5 3.9 1.5 5.2 0 1.3-1.5 1.5-3.9 0-5.2l-16-16c-1.5-1.5-1.5-3.9 0-5.2l8.5-8.5-33-5.4 5.4 33 8.5-8.5c.8-.9 1.8-1.2 2.7-1.2z"/><path d="M345.5 260.7H136.2c-7.3 0-13.3 6-13.3 13.3v56.4c0 7.3 6 13.3 13.3 13.3h133.5l-1.3-8.1c-.3-1.6.9-3.1 2.5-3.4h.9l35.2 5.7c1.6.3 2.8 1.8 2.5 3.4-.1.6-.4 1.2-.9 1.6l-.6.6h37.2c7.3 0 13.3-6 13.3-13.3v-56.5c.2-7.1-5.7-13-13-13z" fill="#db1115"/><path class="st6" d="M199.3 281.1c-3.9-1.5-8.2.3-9.7 4.2l-5.4 13.6-5.4-13.6v-.1c-1.6-3.7-6-5.7-9.7-4-1.8.7-3.3 2.2-4 4v.1l-5.4 13.6-5.4-13.6c-1.5-3.9-5.8-5.8-9.7-4.3-3.9 1.5-5.8 5.8-4.3 9.7v.1l12.4 30.9c1.2 2.8 3.9 4.6 6.9 4.6s5.8-1.9 6.9-4.6l5.4-13.6 5.4 13.6c1.2 2.8 3.9 4.6 6.9 4.6s5.8-1.9 6.9-4.6l12.5-30.9c1.3-3.9-.6-8.2-4.3-9.7zM268.2 281.1c-3.9-1.5-8.2.3-9.7 4.2l-5.4 13.6-5.4-13.6c-1.2-2.8-3.9-4.6-6.9-4.6s-5.8 1.9-6.9 4.6l-5.4 13.6-5.4-13.6c-1.5-3.9-5.8-5.8-9.7-4.3-3.9 1.5-5.8 5.8-4.3 9.7v.1l12.4 30.9c1.2 2.8 3.9 4.6 6.9 4.6s5.7-1.8 6.9-4.6v-.2l5.4-13.6 5.4 13.6c1.2 2.8 3.9 4.6 6.9 4.6s5.8-1.9 6.9-4.6l12.4-30.9c1.6-3.7-.3-8-4.1-9.5zM337.2 281.1c-3.9-1.5-8.2.3-9.7 4.2l-5.4 13.6-5.4-13.6v-.1c-1.6-3.7-6-5.7-9.7-4-1.8.7-3.3 2.2-4 4v.1l-5.4 13.6-5.4-13.6c-1.5-3.9-5.8-5.8-9.7-4.3-3.9 1.5-5.8 5.8-4.3 9.7v.1l12.4 30.9c1.2 2.8 3.9 4.6 6.9 4.6 3 0 5.7-1.8 6.9-4.6v-.2l5.4-13.6 5.4 13.6c1.2 2.8 3.9 4.6 6.9 4.6 3 0 5.8-1.9 6.9-4.6l12.4-30.9c1.5-3.7-.3-8-4.2-9.5z"/><path class="st3" d="M370.8 160.6H112.3c-10.3 0-18.8 8.4-18.8 18.8v19.1h296.1v-19.1c-.1-10.4-8.4-18.8-18.8-18.8z"/><path class="st4" d="M407.6 381.8h-17.9c-2.1 0-3.7-1.6-3.7-3.7V179.4c0-8.4-6.7-15.1-15.1-15.1H130.3c-2.1 0-3.7-1.6-3.7-3.7v-41.2c0-12.4 10.2-22.6 22.5-22.6h258.5c12.4 0 22.6 10.2 22.6 22.6v239.7c-.1 12.5-10.2 22.5-22.6 22.7zm-14.2-7.5h14.2c8.4 0 15.1-6.7 15.1-15.1V119.4c0-8.4-6.7-15.1-15.1-15.1H149.1c-8.4 0-15.1 6.7-15.1 15.1v37.5h236.9c12.4 0 22.5 10.2 22.5 22.5v194.9z"/><path class="st4" d="M370.8 441.7H112.3c-12.4 0-22.5-10.2-22.5-22.5V179.4c0-12.4 10.2-22.5 22.5-22.5h258.5c12.4 0 22.5 10.2 22.5 22.5v239.7c.1 12.4-10.1 22.6-22.5 22.6zM112.3 164.3c-8.4 0-15.1 6.7-15.1 15.1v239.7c0 8.4 6.7 15.1 15.1 15.1h258.5c8.4 0 15.1-6.7 15.1-15.1V179.4c0-8.4-6.7-15.1-15.1-15.1H112.3z"/><path class="st4" d="M116.4 183.3c-1 0-1.9-.4-2.7-1-.1-.1-.3-.3-.4-.6-.1-.1-.3-.4-.3-.6-.1-.3-.1-.4-.1-.7v-.7-.7c0-.3.1-.4.1-.7.1-.3.1-.4.3-.6.1-.1.3-.4.4-.6 1.5-1.3 3.7-1.3 5.2 0 .1.1.3.3.4.6.2.2.3.4.3.6.1.1.1.4.1.7 0 .3.1.4 0 .7v.7c0 .3-.1.4-.1.7-.1.3-.1.4-.3.6-.1.1-.3.4-.4.6-.1.1-.3.3-.6.4-.1.2-.4.3-.6.3-.3.1-.4.1-.7.1-.2.2-.3.2-.6.2zM130.3 183.3c-2.1 0-3.7-1.6-3.7-3.7 0-1 .4-1.9 1-2.7 1.5-1.3 3.7-1.3 5.2 0 1.5 1.5 1.5 3.9 0 5.2-.6.8-1.6 1.2-2.5 1.2zM144 183.3c-1 0-1.9-.4-2.7-1-.7-.7-1-1.6-1-2.7v-.7c0-.3.2-.4.2-.7.1-.3.1-.4.3-.6.1-.1.3-.4.4-.6 1.5-1.3 3.7-1.3 5.2 0 .1.1.3.3.4.6.1.2.3.4.3.6.1.1.1.4.1.7v.7c.5 1.9-1.1 3.7-3.2 3.7zM426.4 142.2H130.3c-2.1 0-3.7-1.6-3.7-3.7v-19.1c0-12.4 10.2-22.6 22.5-22.6h258.5c12.4 0 22.6 10.2 22.6 22.6v19.1c-.1 2.1-1.9 3.7-3.8 3.7zM134 134.8h288.7v-15.4c0-8.4-6.7-15.1-15.1-15.1H149.1c-8.4 0-15.1 6.7-15.1 15.1v15.4z"/><path class="st4" d="M153.1 123.3c-1 0-1.9-.4-2.7-1-.1-.1-.3-.3-.4-.6-.1-.2-.3-.4-.3-.6-.1-.3-.1-.4-.1-.7 0-.3-.1-.4 0-.7v-.7c0-.3.1-.4.1-.7.1-.3.1-.4.3-.6.2-.1.3-.4.4-.6.9-.9 2.1-1.2 3.3-1 .3 0 .4.1.7.1.3.1.4.1.6.3.1.2.4.3.6.4.7.7 1 1.6 1 2.7v.7c0 .3-.1.4-.3.7-.1.3-.1.4-.3.6-.2.2-.3.4-.4.6s-.3.3-.6.4c-.1.1-.4.3-.6.3-.3.1-.4.1-.7.1-.1.3-.3.3-.6.3zM167 123.3h-.7c-.3 0-.4-.1-.7-.3-.3-.1-.4-.1-.6-.3-.1-.1-.4-.3-.6-.4-.2-.1-.3-.4-.4-.6-.1-.2-.3-.4-.3-.6-.2-.1-.2-.4-.2-.7 0-.3-.1-.4-.1-.7 0-.3 0-.4.1-.7.2-.4.3-.9.6-1.3.1-.1.3-.4.4-.6.1-.1.3-.3.6-.4 1.5-1 3.4-.7 4.6.4.1.1.3.3.4.6.2.1.3.4.3.6.1.4.3.9.3 1.5 0 .3 0 .4-.1.7 0 .3-.1.4-.1.7-.1.1-.1.4-.3.6-.1.1-.3.4-.4.6-.1.2-.3.3-.6.4-.1.1-.4.3-.6.3-.3.2-.4.2-.7.3-.5-.1-.8-.1-.9-.1zM180.7 123.3c-1 0-1.9-.4-2.7-1-.1-.1-.3-.3-.4-.6-.1-.2-.3-.4-.3-.6-.1-.1-.1-.4-.1-.7 0-.3 0-.4-.1-.7 0-1 .4-1.9 1-2.7.1-.1.3-.3.6-.4.1-.2.4-.3.6-.3.1-.1.4-.1.7-.1 1.9-.4 4 .9 4.3 2.8 0 .3.2.4.2.7 0 .3 0 .4-.2.7 0 .3-.1.4-.1.7-.1.3-.1.4-.3.6-.1.1-.3.4-.4.6-.8.7-1.7 1-2.8 1zM359.3 123.3H222.6c-2.1 0-3.7-1.6-3.7-3.7s1.6-3.7 3.7-3.7h136.8c2.1 0 3.7 1.6 3.7 3.7 0 2-1.7 3.7-3.8 3.7zM323.2 183.3H186.4c-2.1 0-3.7-1.6-3.7-3.7s1.6-3.7 3.7-3.7h136.8c2.1 0 3.7 1.6 3.7 3.7s-1.6 3.7-3.7 3.7zM345.5 347.6h-37.2c-2.1 0-3.7-1.6-3.7-3.7 0-.9.3-1.6.7-2.4l-33-5.4 1.2 7c.3 2.1-1 3.9-3.1 4.3H136.2c-9.4 0-17-7.6-17-17V274c0-9.4 7.6-17 17-17h209.2c9.4 0 17 7.6 17 17v56.4c.1 9.6-7.5 17.2-16.9 17.2zm-32.2-7.5h32c5.4 0 9.6-4.3 9.6-9.6v-56.4c0-5.4-4.3-9.6-9.6-9.6H136.2c-5.4 0-9.6 4.3-9.6 9.6v56.4c0 5.4 4.3 9.6 9.6 9.6h129.2l-.6-3.7c-.6-3.7 1.9-7.2 5.7-7.8.7-.1 1.5-.1 2.1 0l35.2 5.7c2.5.4 4.6 2.2 5.4 4.6 0 .5.1.8.1 1.2z"/><path class="st4" d="M184.2 330.1h-.2c-4.5-.1-8.5-2.8-10.3-7l-1.9-4.8-1.9 4.8c-1.6 4.2-5.7 7-10.3 7h-.3c-4.5-.1-8.5-2.8-10.3-7l-12.4-30.9c-2.2-5.7.4-12.2 6.3-14.5s12.2.4 14.5 6.3l1.9 4.8 1.9-4.8c0-.1.2-.1.2-.3 1.8-4 5.8-6.7 10.3-6.7 4.5 0 8.5 2.7 10.3 6.7 0 .1.1.1.1.3l1.9 4.8 1.9-4.8c2.2-5.7 8.8-8.5 14.5-6.3s8.5 8.8 6.3 14.5l-12.2 30.9c-1.7 4.2-5.7 7-10.3 7zm-12.4-25.7c1.5 0 2.8.9 3.4 2.4l5.4 13.6c.6 1.3 1.9 2.4 3.4 2.4s2.8-.9 3.4-2.4l12.4-30.9c.7-1.9-.1-4-1.9-4.9-1.9-.7-4 .1-4.9 1.9v.2l-5.4 13.6c-.7 1.9-3 2.8-4.8 2.1-.9-.4-1.6-1.2-2.1-2.1l-5.4-13.4c0-.1 0-.1-.1-.3-.6-1.3-1.9-2.2-3.4-2.2s-2.8.9-3.4 2.2c0 0 0 .2-.1.2l-5.4 13.3c-.7 1.9-3 2.8-4.8 2.1-.9-.4-1.6-1.2-2.1-2.1l-5.4-13.6c-.7-1.9-2.8-2.8-4.8-2.2-1.9.7-2.8 2.8-2.2 4.8v.1l12.4 30.9c.6 1.3 1.9 2.4 3.4 2.4s2.8-.9 3.4-2.4l5.4-13.6c.6-1.2 2.1-2.1 3.6-2.1z"/><path class="st4" d="M253.2 330.1h-.2c-4.5-.1-8.5-2.8-10.3-7l-1.9-4.8-1.9 4.8c0 .2-.1.2-.1.3-1.8 4-5.7 6.7-10.2 6.7h-.3c-4.5-.1-8.5-2.8-10.3-7l-12.4-30.9c-2.2-5.7.4-12.2 6.3-14.5 5.7-2.2 12.2.4 14.5 6.3l1.9 4.8 1.9-4.8c1.6-4.2 5.8-7 10.5-7 4.6 0 8.7 2.8 10.5 7l1.9 4.8 1.9-4.8c2.2-5.7 8.8-8.5 14.5-6.3 5.7 2.2 8.5 8.8 6.3 14.5l-12.4 30.9c-1.6 4.2-5.7 7-10.3 7h.1zm-12.4-25.7c1.5 0 2.8.9 3.4 2.4l5.4 13.6c.6 1.3 1.9 2.4 3.4 2.4s2.8-.9 3.4-2.4l12.4-30.9c.7-1.9-.2-4-1.9-4.9-1.9-.7-4 .1-4.9 1.9v.2l-5.4 13.6c-.7 1.9-3 2.8-4.8 2.1-.9-.4-1.6-1.2-2.1-2.1l-5.4-13.6c-.6-1.3-1.9-2.4-3.4-2.4s-2.8.9-3.4 2.4l-5.4 13.6c-.7 1.9-3 2.8-4.8 2.1-.9-.4-1.6-1.2-2.1-2.1l-5.4-13.6c-.7-1.9-2.8-2.8-4.8-2.2-1.9.7-2.8 2.8-2.2 4.8v.1l12.4 30.9c.6 1.3 1.9 2.4 3.4 2.4s2.8-.9 3.4-2.2c0 0 0-.1.2-.1l5.4-13.4c.3-1.7 1.7-2.6 3.2-2.6z"/><path class="st4" d="M322 330.1c-4.5-.1-8.5-2.8-10.3-7l-1.9-4.8-1.9 4.8c0 .2-.1.2-.1.3-1.8 4-5.7 6.7-10.2 6.7h-.3c-4.5-.1-8.5-2.8-10.3-7l-12.4-30.9c-2.2-5.7.4-12.2 6.3-14.5 5.7-2.2 12.2.4 14.5 6.3l1.9 4.8 1.9-4.8c0-.1.1-.1.1-.3 2.4-5.7 9.1-8.2 14.8-5.8 2.7 1.2 4.6 3.3 5.8 5.8 0 .1.1.1.1.3l1.9 4.8 1.9-4.8c2.2-5.7 8.8-8.5 14.5-6.3 5.7 2.2 8.5 8.8 6.3 14.5l-12.4 30.9c-1.6 4.2-5.7 6.9-10.2 7 .3 0 .2 0 0 0zm-.1-7.5c-.7 0-1.5.3-1.9.7.4-.4 1.1-.5 1.9-.7zm-12.1-18.2c1.5 0 2.8.9 3.4 2.4l5.4 13.6c.6 1.3 1.9 2.2 3.3 2.4h.1c1.5 0 2.8-.9 3.4-2.4l12.4-30.9c.7-1.9-.1-4-1.9-4.9-1.9-.7-4 .1-4.9 1.9v.2l-5.4 13.6c-.7 1.9-3 2.8-4.8 2.1-.9-.4-1.6-1.2-2.1-2.1l-5.4-13.4c0-.1 0-.1-.1-.3-.6-1.3-1.9-2.2-3.4-2.2s-2.8.9-3.4 2.2c0 0 0 .2-.1.2l-5.4 13.3c-.7 1.9-3 2.8-4.8 2.1-.9-.4-1.6-1.2-2.1-2.1l-5.4-13.6c-.7-1.9-2.8-2.8-4.8-2.2-1.9.7-2.8 2.8-2.2 4.8v.1l12.4 30.9c.6 1.3 1.9 2.4 3.4 2.4s2.8-.9 3.4-2.2c0 0 0-.1.2-.1l5.4-13.4c.5-1.5 1.9-2.4 3.4-2.4zM389.7 202.1H93.5c-2.1 0-3.7-1.6-3.7-3.7v-19c0-12.4 10.2-22.5 22.5-22.5h258.5c12.4 0 22.5 10.2 22.5 22.5v19.1c.1 2-1.5 3.6-3.6 3.6zm-292.4-7.4H386v-15.2c0-8.4-6.7-15.1-15.1-15.1H112.3c-8.4 0-15.1 6.7-15.1 15.1v15.2z"/></g></svg>