<svg version="1.1" id="Слой_1" xmlns="http://www.w3.org/2000/svg" xmlns:xlink="http://www.w3.org/1999/xlink" x="0" y="0" viewBox="0 0 581 526" xml:space="preserve"><style>.st1{fill:#ffe3ca;stroke:#000;stroke-width:3;stroke-miterlimit:10}.st2{fill:#524e5e}.st2,.st4{stroke:#000;stroke-width:3;stroke-miterlimit:10}.st4,.st5{fill:#21202a}.st10,.st7,.st9{fill:#c80b0d;stroke:#000;stroke-width:3;stroke-miterlimit:10}.st10,.st9{fill:#fbe9c3}.st10{fill:#cf131d}</style><defs><path id="SVGID_1_" d="M581.5 263.3c0 145.1-117.6 262.7-262.7 262.7S56.1 408.4 56.1 263.3 173.7.7 318.8.7c24.6 0 48.4 3.4 71 9.7 110.6 30.9 191.7 132.5 191.7 252.9z"/></defs><clipPath id="SVGID_2_"><use xlink:href="#SVGID_1_" overflow="visible"/></clipPath><path clip-path="url(#SVGID_2_)" fill="#161616" d="M23.7-49.8h592.8v624.3H23.7z"/><g id="_x32_"><path class="st1" d="M331.8 464.7s2.3 10.3 8 12.6c5.7 2.3 55 22.9 56.1 22.9s27.5 10.3 30.9 11.5c3.4 1.1 19.5 14.9 35.5 9.2 16-5.7 19.5-17.2 29.8-21.8 10.3-4.6 47-17.2 47-42.4s-6.9-63-5.7-67.6c1.1-4.6-3.4-10.3-8-14.9s-22.9-27.5-22.9-27.5l-33.2 37.8-137.5 80.2z"/><path class="st2" d="M511.6 259.7s33.2 16 34.4 28.6c-2.3 5.7-6.9 9.2-6.9 9.2s-16-17.2-29.8-17.2l2.3-20.6zM391.4 338.7v5.7l12.6 5.8 13.7-36.7-20.6-14.9z"/><path d="M276.3 127.4L107.9 11.7s-6.9 2.3-6.9 8l166.1 118 9.2-10.3z" fill="#fff" stroke="#000" stroke-width="3" stroke-miterlimit="10"/><path class="st2" d="M307.8 87.9s-33.8 12.5-54.3 58c-5.1 11.3-9.4 24.7-12.1 40.5 48.1 33.2 88.2 60.7 88.2 60.7l68.7-99.6-90.5-59.6z"/><path class="st2" d="M329.5 79.9l-9.7 15.9 50.8 33.5s-19.3-10.4-19.3-35.6c-17.2-11.6-21.8-13.8-21.8-13.8zM398.2 144l-8.4 12.8-64.9 98.3 75.6 49.3s28.6 17.2 30.9 36.7c1.1 2.3-10.3 16-22.9 16s-52.7-27.5-51.5-34.4 1.1-24.1 11.5-38.9L325 255.2l4.6-8c-3.4-2.3-49.7-34.2-49.7-34.2l-8.7 15.8 32.1 21.8s-5.7 8-4.6 10.3c1.1 2.3 50.4 35.5 50.4 35.5s-8 22.9-5.7 32.1c2.3 9.2 21.8 18.3 21.8 18.3l27.5 18.3 5.7 3.4-33.4 99.6 88.2 38.9s13.7-2.3 22.9-41.2 30.9-114.5 35.5-122.6c4.6-8 10.3-14.9 6.9-20.6-3.4-5.7-19.5-56.1 9.2-93.9-10.3-11.5-17.2-13.7-17.2-13.7l-4.6 4.6L398.2 144z"/><path class="st2" d="M485.3 226.5l-95.5-67.1-55.3 81.1 86.6 60.4s49.3 26.3 71-20.6c13.8-33.2-3.4-51.5-6.8-53.8z"/><path class="st4" d="M378.8 182.9l49.3 33.2s11.5 10.3 1.1 17.2c-10.3 6.9-21.8-1.1-21.8-1.1l-44.9-33 12.8-18.4 3.5 2.1zM384.3 167.5l56.3 37.2s5 2.8 10-2.6l-60.4-43.2-5.9 8.6zM353.7 212.4l51.4 38.1s6.9 8 1.1 14.9c-5.7 6.9-17.2 0-17.2 0L341 231l12.7-18.6z"/><path class="st2" d="M475 219.3l-55.6 80.4"/><path class="st5" d="M347.8 208.1l-93.9-61.8-6.8 17.2-3.5 16 87.1 58.4 19.4-28.6zM286 106.2l12.6-10.3 90.5 58.4-9.2 12.6zM261.9 138.3l96.3 63-2.3 4.5-97.4-64.1z"/><path d="M448.6 343.3s-24.1 0-35.5 29.8c-11.5 29.8-27.5 69.9-26.3 71s-6.9 9.2 9.2 16c16 6.9 47 17.2 47 17.2s12.6 5.7 20.6-16c8-21.8 19.5-69.9 14.9-89.3-4.7-19.5-19.5-28.7-29.9-28.7z" fill="#1f1e28" stroke="#000" stroke-width="3" stroke-miterlimit="10"/><path class="st1" d="M394.8 304.3c-1.1 0-16-9.2-20.6-6.9-4.6 2.3-13.7 13.7-10.3 20.6 3.4 6.9 10.3 12.6 14.9 14.9 4.6 2.3 29.8 14.9 33.2 12.6 3.4-2.3 13.7-8 9.2-16-5.8-10.3-26.4-25.2-26.4-25.2z"/><path class="st7" d="M401.7 325s-2.3 5.7 0 12.6c2.3 6.9 26.9 8.8 27.8 7.9.8-1.1-11.8-29.7-27.8-20.5z"/><path class="st1" d="M433.8 404s-3.4-13.7-10.3-21.8c-6.9-8-16-18.3-27.5-21.8-11.5-3.4-52.7-17.2-60.7-12.6s-11.5 25.2-2.3 29.8c9.2 4.6 29.8 6.9 29.8 6.9s30.9 5.7 34.4 9.2 22.9 20.6 26.3 19.5c3.4-1.2 10.3-4.6 10.3-9.2z"/><path class="st7" d="M413.1 388c0 1.1-1.1 6.9 0 11.5s18.3 16 22.9 13.7c4.6-2.3-3.4-19.5-11.5-25.2-7.9-5.8-11.4-3.5-11.4 0z"/><path class="st1" d="M400.5 431.5c1.1 1.1 8 4.6 14.9-3.4s-2.3-17.2-4.6-19.5c-2.3-2.3-19.5-14.9-32.1-17.2s-37.8-10.3-48.1-6.9c-10.3 3.4-11.5 22.9-8 26.3 3.4 3.4 29.8 25.2 29.8 25.2l22.9-1.1 4.6-10.3 20.6 6.9z"/><path class="st1" d="M369.4 435.2s-34.2 5.4-38.8 11.2c-4.6 5.7-4.6 11.5-2.3 17.2 2.3 5.7 17.2 8 24.1 5.7 6.9-2.3 12.6-5.7 14.9-5.7s4.6-2.3 6.9-1.1c2.3 1.1 27.5 11.5 29.8 9.2 2.3-2.3 8-6.9 5.7-11.5-2.3-4.7-40.3-25-40.3-25zM479.6 329.5s-10.3 3.4-16 8c-5.7 4.6-9.2 11.5-11.5 12.6-2.3 1.1-18.3 12.6-14.9 17.2 3.4 4.6 9.2 9.2 19.5 6.9s22.1-.5 22.1-.5 10 17.7 12.2 20c2.3 2.3 14.9 8 22.9 9.2 4.8.7 2.3-25.2-1.7-39.5-2.7-9.6-20-36.1-32.6-33.9z"/><path class="st7" d="M420 417.7s-14.9-14.9-18.3-6.9c-3.4 8 0 16 6.9 19.5s19.5 4.6 20.6 1.1-9.2-13.7-9.2-13.7zM454.4 346.7s-30.9 11.5-29.8 16 10.3 5.7 17.2 3.4c6.9-2.3 24.1-5.7 22.9-11.5-1.2-5.6-6.9-9-10.3-7.9zM394.8 448.7s-11.5 2.3-9.2 8c2.3 5.7 27.1 12 30.2 11.1 3.1-.8-14.1-21.4-21-19.1z"/><path d="M476.1 372.8c6.1-4 11-9.8 12.1-17.2.3-1.9-2.6-2.7-2.9-.8-1 6.6-5.3 11.7-10.7 15.4-1.6 1.1-.1 3.7 1.5 2.6zM484.5 374.3c4.2-2.2 7.3-5.9 8.8-10.3.6-1.8-2.3-2.6-2.9-.8-1.3 3.7-4 6.7-7.4 8.5-1.7.9-.2 3.5 1.5 2.6z"/><path d="M495 403.4l14.3-46.5s4 8.7 7.4 15.6c3.4 6.9 6.9 26.3 6.9 28.6s-11.5 12.6-13.7 12.6-14.9-10.3-14.9-10.3z" fill="#ffe3ca"/><path class="st9" d="M145.2 214.7s23.9 11 26.1 21.9-2.3 34.9-35 30.4-2-47.9-2-47.9l10.9-4.4z"/><path class="st9" d="M115.4 29.4c0 2.2-26.3 47.8-48.2 60.8s-48.1 34.7-52.5 43.4S-5 155.3 1.5 172.8s50 35 50 35l50 39.4 31.5 18.6s-.6-5.1 0-16.1c.4-7.5 2.9-17.1 9.9-28.5 17.5-28.3 65.7-82.5 98.4-104.2L115.4 29.4z"/><path d="M152.8 242.6c1.3.3 3.3.7 4.4 1.6 5 4-.7 7.6-3.7 8.4-2.5.6-4.1.4-6.1-1.1-2.7-1.9-2.7-4-1.9-7.2 1.6-6.2 8.9-12.6 14.6-15.1 1.8-.8.2-3.4-1.5-2.6-6 2.6-12.7 8.7-15.2 14.7-1.9 4.6-2.1 13.3 4.1 14.5 5.1 1 12.4-.7 14.3-6.1 2.1-5.8-3.4-8.8-8.2-9.9-1.9-.6-2.7 2.3-.8 2.8z"/><path d="M142.4 250.9l-6.6-4.8c-1.6-1.1-3.1 1.5-1.5 2.6l6.6 4.8c1.5 1.1 3-1.5 1.5-2.6z"/><path class="st10" d="M74.4 206.8l-37 8.6 17.3 13.2v19.6l32.7-21.7z"/><path class="st10" d="M104.9 224.4l-.1 37-17.4-13.1s-17.5 13-17.5 10.8c0-2.2 12.1-40.8 12.1-40.8l22.9 6.1z"/><circle class="st10" cx="92.9" cy="212.4" r="22.9"/><path class="st10" d="M103.3 69.7c2.2 0 100 61.4 100 61.4M94.5 78.4l100 59.2M90.1 87.1c2.2 0 95.7 57 95.7 57M81.4 93.6c2.2 0 95.6 59.2 95.6 59.2M72.7 100.1c2.2 2.2 93.5 61.4 93.5 61.4M66.1 111l89.1 59.1M50.8 115.3c2.2 4.4 30.4 21.9 30.4 21.9M18.1 132.6l13 10.9"/><g><path d="M377 422.1c-11.8-.8-23.3-3.3-34.3-7.5-1.8-.7-2.6 2.2-.8 2.9 11.3 4.3 23.1 6.8 35.1 7.6 1.9.1 1.9-2.9 0-3z"/></g><g><path d="M487.5 422.3c5.7 7 12.4 13 20 17.8 1.6 1 3.1-1.6 1.5-2.6a80.06 80.06 0 01-19.4-17.3c-1.2-1.5-3.3.6-2.1 2.1z"/></g><g><path d="M472.9 492.4v-4c0-1.9-3-1.9-3 0v4c0 1.9 3 1.9 3 0z"/></g><path d="M450.4 261.4l-22.9 35.5s40.1 16 59.6-18.3c9.2-18.3 1.1-36.7 1.1-36.7s-6.9 25.2-37.8 19.5z" fill="#1f1e28"/></g></svg>