<svg version="1.1" id="Слой_1" xmlns="http://www.w3.org/2000/svg" xmlns:xlink="http://www.w3.org/1999/xlink" x="0" y="0" viewBox="0 0 525 661" xml:space="preserve"><style>.st2,.st3{fill:#ffe3ca;stroke:#000;stroke-width:3;stroke-miterlimit:10}.st3{fill:#b20100}.st4{fill:#ffe3ca}.st6{fill:#ffe3c9;stroke:#000;stroke-width:3;stroke-miterlimit:10}.st7{fill:#ffc22a}.st10{fill:#002e78;stroke:#000;stroke-width:3;stroke-miterlimit:10}.st13{fill:#faf7ff}.st15{fill:#fff4ea;stroke:#000;stroke-width:3;stroke-miterlimit:10}.st19{clip-path:url(#SVGID_4_)}</style><defs><path id="SVGID_1_" d="M525.5 394.3c0 145.1-117.6 262.7-262.7 262.7S.1 539.4.1 394.3s117.6-262.7 262.7-262.7c24.6 0 48.4 3.4 71 9.7 110.6 31 191.7 132.6 191.7 253z"/></defs><clipPath id="SVGID_2_"><use xlink:href="#SVGID_1_" overflow="visible"/></clipPath><path clip-path="url(#SVGID_2_)" fill="#161616" d="M-32.3 81.2h592.8v624.3H-32.3z"/><g id="_x33_"><path d="M364.1 266.9s10.3-19.1 11.8-35.3c1.5-16.2-4.4-60.4-42.7-70.7s-53-11.8-76.6-1.5c0 0-23.6-14.7-35.3-13.3-11.8 1.5-33.9 10.3-45.7 36.8-11.8 26.5 17.7 79.5 17.7 79.5l8.8 17.7 132.6 13.3 29.4-26.5z" fill="#fff0b8" stroke="#000" stroke-width="3" stroke-miterlimit="10"/><path class="st2" d="M123.3 107s-8.8-33.9-10.3-35.3-14.7-7.4-16.2-11.8S86.5 29 86.5 29s4.4-7.4 7.4-7.4c2.9 0 2.9-5.9 2.9-5.9l8.8-4.4 5.9-4.4 7.4-2.9 5.9-1.5 7.4-1.5 2.9 4.4 7.4-1.5 13.3 25-16.2 32.4 8.8 33.9-25.1 11.8z"/><path d="M88.6 33.5c2.3 2.1 4.2 4.5 5.9 7.1.9 1.4 1.6 4.3 3.1 5.3 1.3.9 2.7.2 4-.3 2-.7 4.8-1.1 6.6-2.3 5.9-4-6.3-15.4-7.9-19-.8-1.7-3.4-.2-2.6 1.5 1.2 2.5 2.8 4.6 4.5 6.7 1.1 1.3 2.2 2.6 3 4.1.4.7 1.1 1.7 1.2 2.6.3 1.9-.7 1.9-2.2 2.4-1 .3-4 1.9-5 1.6-.7-.2-1.8-3.3-2.2-4-1.7-2.9-3.9-5.4-6.3-7.7-1.4-1.4-3.5.7-2.1 2z"/><path d="M109.7 42.8c3.9-1.2 10.7-3.2 9.9-8.3-.4-2.7-2.2-5.4-3.6-7.7-2.1-3.6-4.1-7.2-5.6-11.1-.7-1.8-3.6-1-2.9.8 1.4 3.6 3.1 7.1 5.1 10.5 1.1 1.8 3.3 4.6 3.6 6.7.5 4.4-4.2 5.5-7.3 6.4-1.8.3-1.1 3.2.8 2.7z"/><path d="M119.8 37.6l5.4-3.3c1.2-.7 2.8-1.3 3.6-2.5 1.5-2.2-.3-5.7-1.2-7.8-.8-1.8-3.4-.2-2.6 1.5.4 1 1 2.1 1.1 3.2.2 1.6-.3 1.7-1.6 2.5-2 1.2-4.1 2.5-6.1 3.7-1.7 1.1-.2 3.7 1.4 2.7zM125.5 13.2l-.9-4.2c-.4-1.9-3.3-1.1-2.9.8l.9 4.2c.4 1.9 3.3 1.1 2.9-.8z"/><path d="M133.9 6.8c-4.3 1.8-21.9 6.9-15.8 14.4 2.8 3.4 8.3 2.5 12 1.8 4.6-.8 9.7-1.7 12.6-5.6 1.2-1.5-1.4-3-2.6-1.5-1.8 2.4-5.5 3-8.2 3.6-1.4.3-2.8.6-4.2.8-.8.2-1.6.2-2.4.2-2.2.3-3.6-1.1-4.1-4.4 1-1.2 3.8-2 5.1-2.7 2.7-1.3 5.5-2.6 8.3-3.7 1.9-.7 1.1-3.6-.7-2.9z"/><path d="M136 22c.8 2.8 2.2 5.2 4.1 7.4 1.3 1.5 3.4-.7 2.1-2.1-1.5-1.8-2.6-3.9-3.3-6.1-.6-1.8-3.4-1-2.9.8z"/><path d="M137.4 27.2c-2.3 4.3-6.5 6.1-9.9 9.3-3.6 3.3-6.5 7.5-9.6 11.3-1.2 1.5.9 3.6 2.1 2.1 3.4-4.1 6.5-8.8 10.6-12.2 3.6-3 7-4.8 9.3-9 1-1.6-1.6-3.2-2.5-1.5zM118.3 68.3c3.5-1.5 7-3 10.5-4.4 1.8-.7 1-3.6-.8-2.9-3.8 1.5-7.5 3-11.2 4.7-1.8.8-.3 3.3 1.5 2.6z"/><path class="st3" d="M121.9 96.7l-8.8 11.8s8.8 26.5 8.8 28-5.9 7.4-4.4 10.3 5.9 20.6 5.9 20.6 7.4 20.6 7.4 23.6 1.5 30.9 1.5 30.9l5.9 14.7s5.9 10.3 7.4 16.2 1.5 32.4 1.5 32.4 2.9 20.6 5.9 26.5 5.9 13.3 8.8 20.6c2.9 7.4 11.8 14.7 11.8 14.7l54.5-29.5s-2.9-20.6-7.4-26.5c-4.4-5.9-10.3-13.3-13.3-17.7-2.9-4.4-11.8-23.6-11.8-23.6s-1.5-19.1-2.9-26.5-2.9-11.8-5.9-19.1-10.3-22.1-10.3-22.1-2.9-33.9-2.9-38.3-2.9-14.7-4.4-16.2c-1.5-1.5-8.8-7.4-8.8-7.4l-10.3-30.9-28.2 7.5z"/><path d="M135.7 201.8c11.9 16 31.1 25 51 23.8 1.9-.1 1.9-3.1 0-3-18.8 1.2-37.2-7.2-48.4-22.3-1.2-1.5-3.8 0-2.6 1.5zM146 240.9c7.1.9 14-.4 20.9-2.4 6.2-1.8 12.5-3.5 17.9-7.2 1.6-1.1.1-3.7-1.5-2.6-5.1 3.6-11.2 5.2-17.2 6.9-6.6 1.9-13.2 3.2-20.1 2.3-1.9-.3-1.9 2.7 0 3zM154 255.2c11.3-4.7 22.7-9.6 30.8-19.1 1.3-1.5-.9-3.6-2.1-2.1-7.8 9-18.7 13.8-29.5 18.3-1.7.7-1 3.7.8 2.9zM158 258.1c11.5-1.8 23-3.9 32.3-11.3 1.5-1.2-.6-3.3-2.1-2.1-8.9 7-20.1 8.9-31 10.5-1.9.3-1.1 3.2.8 2.9zM209.8 279.7c-4-5.2-8.6-9.8-13.8-13.9-1.5-1.2-3.6.9-2.1 2.1 5.1 4.1 9.7 8.7 13.8 13.9 1.2 1.6 3.3-.6 2.1-2.1z"/><path class="st4" d="M249 350.8c1.3 6.2 8.4 6.2 13.3 5.4 1.9-.3 1.1-3.2-.8-2.9-3.4.5-8.7 1.1-9.6-3.3-.4-1.9-3.3-1.1-2.9.8zM288.9 358.1c-3.6-.5-7.2-1.2-10.8-2.1-1.9-.5-2.7 2.4-.8 2.9 3.6.9 7.2 1.6 10.8 2.1 1.9.3 2.7-2.6.8-2.9zM242 343c-3.9-2.3-7.4-5-10.7-8.1-1.4-1.3-3.5.8-2.1 2.1 3.4 3.3 7.2 6.2 11.3 8.6 1.6 1 3.1-1.6 1.5-2.6z"/><path d="M141.7 530.5l28 4.4 14.7-75.1-1.5-20.6-11.8-16.8-3-22.9s-10.3 4.4-10.3 7.4-17.7 76.6-16.2 79.5.1 44.1.1 44.1z" fill="#620000" stroke="#000" stroke-width="3" stroke-miterlimit="10"/><path class="st6" d="M187.4 431.8c9.3 2.5 93.7 19 111.9 22.1L287 538.2l.9 4.3c.4 2.4.3 5.9-.4 8-.6 2.1-1.3 9-1.5 15.5l-.4 11.8-11 1.8c-6 .9-17.2 2.2-24.6 2.8-11.2.7-13.7.6-13.7-1-.1-1.5-.6-1.3-2.1.4-1.6 2.2-4.3 2.7-14.9 2.7-11.6 0-12.8-.3-11.9-2.7.7-2.2.6-2.2-.9-.3-1.8 2.1-10 3.5-10 1.9 0-.4 1.2-1.8 2.7-2.9 2.4-1.9 2.2-2.1-.4-.6-2.2 1-3.5.9-5.4-.9-2.8-2.5-5.6-1.5-5.6 1.9 0 1.8-1.5 2.1-6.9 1.3-3.8-.4-7.4-1.6-8.1-2.7-.7-1.2-1.2-1.2-1.2 0s-1.8 1.2-7.1-.1c-6.8-1.9-13.6-4.9-13.6-6 0-1.5 6.3-14.9 9.9-20.9l4-6.9 1.9 4.4c.9 2.4 1.8 3.2 1.9 2.2.1-5.4 3.2-36.4 3.7-38 .3-1.6 5.8-85 15.1-82.4z"/><path class="st7" d="M149.6 110.8c-.4.7-1.3-.1-1.9-2.2-1.8-6.2-1.2-8.4.9-3.7 1 2.4 1.4 5 1 5.9zM144 106.5c1.3 3.5 1 8-.6 8-.7 0-1.5-.9-1.5-1.9 0-.9-.4-3.2-.9-5.2-1-3.7 1.7-4.5 3-.9zM138.9 114.5c0 3.4-.1 3.4-1.3.7-.7-1.6-1.3-4.3-1.3-5.9-.1-2.5.1-2.5 1.3-.7.7 1.2 1.3 3.8 1.3 5.9zM134.6 114.3c.7 2.5.7 4.6 0 4.6-1.5 0-2.9-3.8-2.9-7.7-.1-4.1 1.1-2.7 2.9 3.1zM129.3 115.4c.9 3.5.3 6.3-1.2 4.9-1.6-1.5-2.5-8.7-1.2-8.7.8 0 1.9 1.7 2.4 3.8zM123.5 118.9c.7 2.5.6 3.2-.4 2.2-.7-.9-1.9-3.1-2.5-5.2-.7-2.5-.6-3.2.4-2.2.8.8 1.9 3.2 2.5 5.2z"/><path d="M199.4 386.2c6 1.6 25 5.9 42 9.6 28.6 6 58 13.4 59.4 14.6.3.3 1.2 13.1 2.1 28.6 1.5 24.4 1.3 28.7-.7 34.3-1.2 3.5-3.7 10.5-5.4 15.3s-4.9 14.7-6.6 22.1l-3.4 13.3h-22.2c-12.1 0-21.7.4-21.1 1 1.3 1.3 25.2 4.1 36.1 4.1 7.5 0 8.4.3 8.4 3.1 0 2.2-.7 2.8-2.5 2.2-1.5-.3-7.7-1.2-13.7-1.6-24.2-2.2-52.7-8.1-75.4-15.5-12.8-4.1-23.6-8.1-24.2-9-.4-.7 0-4.7.9-8.7 1.6-6.5 2.1-7.2 4.6-5.7 4 2.1 3.5-.4-.7-4.4-3.1-2.9-3.4-4-2.1-7.8 1.2-3.2 2.2-4 4-3.2 11 4.7 29.2 10.9 31.7 10.9 1.6 0-4.3-3.2-13.4-7.2-16.8-7.2-24-11.2-24-13.1 0-.6.6-2.1 1.3-3.1 1.2-1.9 3.5-1.8 16.6 1.2 22.7 5.2 24.4 5.7 32.3 12.8 8.2 7.2 14.4 10.9 19 10.9 4.3 0 3.7-2.2-2.4-9.7-3.7-4.4-6.5-6.5-9-6.5-2.1 0-8.1-2.4-13.4-5.2-5.4-2.8-16.3-8.1-24.2-11.8-8-3.7-14.4-7.4-14.4-8.2 0-1.6 1.9-1.3 8.1.9 1.6.6.6-.9-2.5-3.5-10.9-9.4-17.2-30.6-13-43.7 2.9-9 10.6-19.7 14-19.7 1.4-.3 7.7 1 13.8 2.7z" fill="#fff" stroke="#000" stroke-width="3" stroke-miterlimit="10"/><path fill="#cb0200" d="M180.8 379.5L307.4 409l-10.3-47.2-88.3-17.6z"/><path class="st10" d="M141.7 596.8c0 1-.6 6.8-1 10.8-.2 2.2-.4 3.9-.4 3.9s54.5 25 60.4 29.5c5.9 4.4 17.7 7.4 22.1 7.4s5.9-1.5 14.7-8.8 39.8-23.6 61.9-28 32.4-2.9 32.4-2.9 0-14.7-10.3-22.1l-28 7.4s-61.9 7.4-63.3 7.4-73.6-5.9-75.1-5.9-13.4 1.3-13.4 1.3z"/><path class="st3" d="M217.1 607.6l5.6 40.7-6.1-6-74.9-33.7v-11.8l14 5.5 35.9 6.2z"/><path class="st6" d="M132.9 645.4s4.4-35.3 8.8-36.8 81 36.8 81 36.8 1.5 10.3-1.5 11.8-78 1.4-88.3-11.8zM228.6 642.4s0 10.3 2.9 14.7 81 10.3 103.1-16.2c0 0-2.9-30.9-5.9-36.8s-91.2 20.7-100.1 38.3z"/><path d="M147.6 571.7s13.3 13.3 41.2 13.3 70.7 1.5 100.2-5.9 29.5-5.9 29.5-5.9l2.9 13.3s-36.8 19.1-81 20.6-79.5-2.9-79.5-2.9l-20.6-7.4s-4.5-31 7.3-25.1z" fill="#9b99a1" stroke="#000" stroke-width="3" stroke-miterlimit="10"/><path d="M197.9 590.5c3.4 4 5.4 7.1 4.6 7.1-1 0-3.7-2.1-6-4.6l-4.1-4.7-1.8 6.2c-1.8 6.6-.9 9.1 4.9 14.6l3.7 3.5 1-4.6c1-4.7 3.7-7.7 3.7-4.1 0 3.1-3.1 11.3-4.3 11.3-1.8 0-5.4-3.4-9.6-9.1-3.7-5-3.8-5.7-2.4-11.8 2.5-9.6 3.2-11.8 3.5-11.2.3.4 3.3 3.6 6.8 7.4z" fill="#a5a0b2" stroke="#000" stroke-miterlimit="10"/><path class="st3" d="M290.5 557v29.5s42.7-1.5 50.1-8.8v-30.9L290.5 557z"/><path class="st7" d="M336.4 567.4c0 2.1-.6 3.7-1.5 3.7-1.6 0-2.1-4.9-.4-6.3 1.6-1.7 1.9-1.2 1.9 2.6zM330.9 569.6c-1 4.1-1.9 3.7-1.9-.9 0-2.1.6-3.4 1.3-2.9.8.4 1.1 2.2.6 3.8zM325.6 572.1c-.4 1.5-.7.6-.7-1.8 0-2.5.3-3.5.7-2.7.3 1.1.3 3.2 0 4.5z"/><ellipse class="st7" cx="320.2" cy="571.1" rx="1.5" ry="2.9"/><path class="st7" d="M311.3 573.6c0 2.9-.4 3.5-1.6 2.4-1-1-1.3-2.8-.9-4 1.5-3.6 2.5-2.8 2.5 1.6zM315.3 574.3c-.4 1-.7.3-.7-1.8s.3-2.8.7-1.9c.3 1.1.3 2.8 0 3.7z"/><ellipse class="st7" cx="295.1" cy="574.8" rx="1.5" ry="3.7"/><path class="st7" d="M299.1 575.8c-.4 1-.7.3-.7-1.8s.3-2.8.7-1.9c.3 1 .3 2.8 0 3.7z"/><ellipse class="st7" cx="304" cy="574" rx="1.5" ry="2.9"/><path class="st13" d="M154.9 585.4c0 .5-.3 1-.6 1-.4 0-1.1-.5-1.6-1-.4-.6-.1-1 .6-1 .9-.1 1.6.4 1.6 1zM162.7 587.4c.4.5-.4 1-2 1-1.7 0-3-.5-3-1 0-.6.9-1 2-1 1.2 0 2.6.4 3 1zM280.2 587.3c0 .6-.6 1.3-1.4 1.7-.7.3-1.4-.1-1.4-.9 0-.9.7-1.7 1.4-1.7.8 0 1.4.4 1.4.9z"/><ellipse class="st13" cx="147.8" cy="588.5" rx="1.4" ry="1"/><path class="st13" d="M262.4 590.8c-2.7 1.1-4.3.5-3-1.1.6-.6 2-.7 3.1-.4 2.1.4 2 .6-.1 1.5zM272.3 589.5c-.4.5-1.9 1-3 1s-2-.5-2-1c0-.6 1.3-1 3-1 1.6 0 2.5.4 2 1zM154.9 590.5c0 .5-.7 1-1.6 1-.7 0-1-.5-.6-1 .4-.6 1.1-1 1.6-1 .3 0 .6.4.6 1zM245.7 591.4c.3.7-.9 1.2-2.4 1.2-3 0-3.8-1.1-2-2.5 1.3-.9 3.7-.2 4.4 1.3zM254.5 590.4c0 1-4.3 2.5-5.3 1.8-.4-.3-.3-.9.3-1.6 1.2-1.3 5-1.5 5-.2zM162.7 592.6c.4.5-.1 1-1.3 1-1.3 0-2.3-.5-2.3-1 0-.6.6-1 1.3-1 .9 0 1.9.4 2.3 1z"/><ellipse class="st13" cx="280.2" cy="593.1" rx="1.4" ry="1.6"/><path class="st13" d="M290.1 592c0 .3-.6.8-1.4 1.1-.7.3-1.4.1-1.4-.4 0-.6.7-1.1 1.4-1.1.9 0 1.4.2 1.4.4zM272.3 594.9c-2.7 1.1-4.3.5-3-1.1.6-.6 2-.7 3.1-.4 2.2.5 2.1.7-.1 1.5zM264.5 594.6c0 1.4-2.6 2.4-4.3 1.7-.9-.4-1.1-1.1-.7-1.7 1.2-1.3 5-1.3 5 0zM246 596.2c0 .8-1 1.6-2.1 1.6-2.3 0-2.8-1.2-1.1-2.4 1.5-1.2 3.2-.8 3.2.8zM255.2 595.7c.4.5-.4 1-2 1-1.7 0-3-.5-3-1 0-.6.9-1 2-1 1.2 0 2.6.4 3 1zM291.5 595.7c-1.1.5-2.7 1-3.6 1-.7 0-.4-.5.7-1s2.8-1 3.6-1c.9 0 .5.5-.7 1zM163.3 597.2c1.4 1.2 1.1 1.3-1.1.9-1.7-.3-3-.9-3-1.4 0-1.5 2.3-1.2 4.1.5z"/><path class="st2" d="M465 594.6s8.8 2.9 17.7 1.5l-10.3-8.8-7.4 7.3z"/><path class="st2" d="M403.2 627s2.9 11.8 17.7 8.8c14.7-2.9 22.1-2.9 22.1-2.9s26.5 0 29.5-5.9c-7.4-4.4-11.8-4.4-19.1-4.4-7.4 0-17.7-2.9-17.7-2.9s22.1-17.7 26.5-20.6c4.4-2.9 7.4-8.8 14.7-10.3 7.4-1.5 16.2-8.8 17.7-11.8 1.5-2.9 1.5-4.4 1.5-4.4s-2.9 2.9-10.3 4.4c-7.4 1.5-11.8 1.5-14.7 2.9s-5.9 4.4-5.9 4.4-7.4-5.9-11.8-4.4c0 0-5.9-4.4-11.8-1.5 0 0-8.8-2.9-11.8 0-2.9 2.9-15.5 13.4-18.1 14.1-2.6.6-8.5 34.5-8.5 34.5z"/><path d="M439 580.9c-3.8 2.8-7.6 5.5-11.4 8.3-1.5 1.1 0 3.7 1.5 2.6 3.8-2.8 7.6-5.5 11.4-8.3 1.6-1.2.1-3.8-1.5-2.6zM452 582.4c-4.3 2.3-8.3 5.1-12 8.3-1.4 1.3.7 3.4 2.1 2.1 3.5-3.1 7.3-5.7 11.4-7.8 1.8-.9.2-3.5-1.5-2.6zM462.7 586.1c-5 3.8-10 7.7-15 11.5-1.5 1.2 0 3.8 1.5 2.6 5-3.8 10-7.7 15-11.5 1.5-1.2 0-3.8-1.5-2.6zM466 625.7h-5.1c-1.9 0-1.9 3 0 3h5.1c1.9 0 1.9-3 0-3z"/><path class="st3" d="M371.5 599.7c0 2.9 11.8 26.5 11.8 26.5s29.5 5.9 33.9-17.7l-14.7-33.9-31 25.1z"/><path class="st7" d="M409.3 606.1c-1.3 1.3-3.7-2.8-3.5-6.3 0-2.4.3-2.2 2.2 1.2 1.3 2.3 1.9 4.7 1.3 5.1z"/><path class="st13" d="M274 598.4c-.4.3-1.7.4-2.7.1-1.1-.3-.7-.6.9-.6 1.6-.1 2.4.2 1.8.5zM264.9 599.5c-1 .2-2.7.2-3.6 0-1-.3-.3-.5 1.7-.5s2.8.2 1.9.5zM246.7 600.9c-.4.5-1.9 1-3 1s-2-.5-2-1c0-.6 1.3-1 3-1 1.6 0 2.4.4 2 1zM255 600.6c-1 .2-2.7.2-3.6 0-1-.3-.3-.5 1.7-.5s2.7.2 1.9.5z"/><path class="st7" d="M404.7 605.8c.4 1.3.9 3.4.9 4.7-.1 1.8-.7 1.5-2.2-1.2-1.2-2.1-2.1-4.1-2.2-4.9 0-1.8 2.6-.9 3.5 1.4zM400.9 611.6c1.9 4.3.7 4.9-2.1 1-2.2-2.9-2.7-4.7-.9-4.7.8 0 2.1 1.6 3 3.7zM396.8 617c0 .7-.6 1.2-1.2 1.2-1.8 0-4.7-6.8-3.5-8 .8-.8 4.5 4.6 4.7 6.8zM385 618.8c0 .9-1 .3-2.2-1.2-1.2-1.6-2.2-3.7-2.2-4.4 0-.9 1-.3 2.2 1.2 1.1 1.6 2.2 3.7 2.2 4.4zM389.4 615.1c1.8 3.5 1.9 4.6.3 4.6-.7 0-2.1-1.6-2.9-3.7-2.1-4.3.2-5 2.6-.9z"/><path d="M305.4 159.3c0 .3 1 1.3 2.2 2.4 1.3 1 2.2 1.2 2.2.3 0-.7-1-1.8-2.2-2.4-1.1-.5-2.2-.6-2.2-.3zM302.5 163.1c4.9 3.8 7.1 3.8 3.7 0-1.5-1.6-3.7-2.9-5-2.9-1.8 0-1.4.8 1.3 2.9zM293.7 162.1c0 .3 2.1 2.4 4.4 4.7 2.5 2.4 4.4 3.5 4.4 2.5 0-1.9-5.7-7.7-7.7-7.7-.6 0-1.1.2-1.1.5zM292.2 169c5 4.7 6.6 5 5.2 1.2-.7-1.9-6.6-5.6-9.1-5.6-.5 0 1.2 2 3.9 4.4zM289.5 173c2.2 2.2 4.4 3.5 5 3.1 1.2-1.2-4.7-7.1-7.1-7.1-1 0 .1 1.8 2.1 4zM252.7 356.8c2.9 3.2 4.7 3.8 7.7 3.1 5.3-1.3 4.9-3.4-.9-4.1-2.7-.4-6.2-1.3-7.8-1.9-2.4-.9-2.2-.5 1 2.9zM191.4 390.4c-2.9 2.2-2.8 7.1.3 8.1 1.2.3 1.8-.3 1.5-1.9-.3-1.5.7-3.2 2.1-4.1 1.9-1.3 3.1-1 5.4 1 1.8 1.6 3.1 2.5 3.1 2.1 0-.4 6.2.7 13.7 2.7 11.8 3.1 55.8 12.4 58.9 12.4.6 0 1-.7 1-1.5 0-.9-1-1.5-2.2-1.5s-14.3-2.9-29-6.5c-14.9-3.7-30.9-7.1-35.8-7.5-4.9-.6-10-1.9-11.6-3.1-3.7-2.6-4.1-2.6-7.4-.2z"/><path d="M193.5 401c-1.3 1.6-2.5 1.8-4.4.7s-3.1-.9-3.8.3c-.6.9-.4 1.2.4.7.9-.6 2.4 0 3.4 1.2 2.4 2.9 8 2.8 10.9-.1 1.3-1.2 2.4-2.7 2.4-3.2 0-.4-.7-.1-1.8.9-1 1-3.1 1.8-4.6 1.8-2.4 0-2.5-.4-1-2.2 1-1.2 1.5-2.2 1-2.2-.3-.1-1.5.9-2.5 2.1zM203.2 404.1c-.4 1.3-.9 2.5-.9 2.8 0 .1 7.4 2.4 16.2 4.6 9 2.4 16.2 4.9 16.2 5.6 0 .6-1.3.9-2.9.4-3.5-.9-5.6 1.6-2.2 2.8 1.3.6 3.5-.1 4.9-1.5 2.5-2.1 4.3-1.8 23.6 4.1 11.5 3.5 20.9 5.9 20.9 5.3 0-1-16.3-7.5-27.5-10.9-2.1-.6-3.4-2.2-3.4-4 0-3.1-.1-3.1 14.7.4 3.7.7 7.5 1.8 8.5 2.1.9.3 1.8 0 1.8-.7 0-1.8-24.9-8.4-42.7-11.2-6.5-1.2-21.5-2.1-18.7-1.3 4.1 1.3 2.9 3.4-1.9 3.2-3.2-.1-4.3-.7-3.8-2.2.4-1 .1-1.9-.4-1.9-.9 0-1.9 1-2.4 2.4zm25.5 2.8c.1.3 0 1.2-.4 1.9-1 1.8-12.7-.9-12.7-2.9 0-1.3 11.8-.4 13.1 1zm6 2c0 .6 2.4 1 5.3.7 3.5-.3 5.4.3 6 1.8 1.3 3.4-.1 3.7-6.8 1.5-3.4-1.3-6.5-2.2-7.1-2.2s-1.3-.6-1.6-1.5c-.3-.9.4-1.6 1.8-1.6s2.4.6 2.4 1.3zM194.7 413.2c-.6 1.8-1.6 3.2-2.5 3.2s-1.2-1.2-.6-2.7c.7-2.1.3-2.1-2.7.6-3.7 3.4-7.2 3.2-7.2-.3 0-1.2-1-2.1-2.4-2.1-3.4 0-1.8 3.4 2.8 5.6 3.4 1.6 3.7 2.4 2.5 4.9-.9 1.6-2.2 2.5-3.1 2.1-2.4-1.5-1.5.3 3.2 7.4 5.9 8.7 10.8 12.1 13.8 9.6 2.4-1.9 1.6-4.7-1.2-4.1-3.7.6-8.1-2.1-9.7-5.9-2.1-4.9 0-10.2 5.7-14.7 1.8-1.5 3.1-3.7 2.7-4.7-.3-1.6-.7-1.1-1.3 1.1z"/><path d="M200.4 424.5c-2.8 6-3.1 8.1-1 8.1.9 0 1.5-1 1.5-2.2 0-1.3 1-4.3 2.2-6.6 1.3-2.5 1.8-4.4 1-4.4-.7 0-2.4 2.3-3.7 5.1zM214.3 421.3c-1.8 2.2-.7 4 2.4 4 1 0 1.9-1 1.9-2.2 0-2.7 3.1-2.9 5.9-.4 1.8 1.6 1.8 1.5.1-.7-2.4-3.1-8-3.4-10.3-.7zM192.5 425.4c-.9 2.4-1.2 4.6-.6 4.9.6.4 1.8-1.2 2.7-3.7.9-2.4 1.2-4.6.6-4.9-.7-.4-1.9 1.2-2.7 3.7zM174.3 423.6c0 .7 1 2.1 2.2 3.1 2.4 2.1 2.7 1.5 1.3-2.1-.8-2.4-3.5-3.2-3.5-1zM219.6 429.1c-2.8 3.8-7.7 4.7-8.8 1.6-.6-1.3-1-1.3-2.7.1-1.6 1.5-1.5 2.2.4 4.1 2.1 2.1 2.7 2.1 6.8 0 2.5-1.3 5.3-3.8 6.3-5.4 2.2-4.4 1.1-4.5-2-.4zM229 430.6c-2.8 4-3.2 5.9-2.1 7.7 1.9 3.2 6.9 3.2 7.5 0 .3-1.9-.1-2.4-1.8-1.8-3.1 1.2-3.1-2.8 0-7.5 3.9-5.8.4-4.3-3.6 1.6zM225.2 428.2c-.4.7-.1 1.5.6 1.5.9 0 1.6-.7 1.6-1.5 0-.9-.3-1.5-.6-1.5-.5 0-1.2.6-1.6 1.5zM242.4 435.4c.3 1.9-.4 3.8-1.6 4.3-1.5.4-1.6-.3-.9-2.8.9-2.8.7-3.1-.7-1.9-2.1 2.1-1.5 6.8 1 7.5 2.8 1 5.9-6.5 3.5-8.8-1.3-1.4-1.6-.9-1.3 1.7zM220 436.6c0 1 .6 1.9 1.3 1.9s1.6-.9 2.1-1.9c.4-1.2-.1-2.1-1.3-2.1s-2.1.9-2.1 2.1zM247 438.5c-2.1 5.3-.1 5.9 2.2.7 2.1-4.6 2.2-5.2.6-5.2-.6.1-2 2-2.8 4.5zM251.2 440.4c-2.5 6.9-2.2 9.6 1.2 11.3 4.4 2.4 6.8.1 2.9-2.5-3.2-2.2-3.4-5-.7-11.2.6-1.3.4-2.5-.3-2.5-.7.1-2 2.3-3.1 4.9z"/><path d="M259.3 436.5c-.6.6-.6 2.7 0 4.7.7 3.1.4 3.5-1.6 2.8-1.8-.7-2.4-.4-2.1.7.4 1 1.9 1.9 3.5 1.9 2.4 0 2.8-.9 2.4-5.2-.3-4 0-4.7 1.3-2.9 1.3 1.8 1.5 1.8 1 .1-.6-2.4-3-3.6-4.5-2.1zM267.4 441.2c-2.8 5.6-2.9 7.7 0 7.7.6 0 1.2-1.2 1.2-2.5s1.2-3.7 2.5-5.2c1.6-1.9 1.9-3.2.9-4.3s-2.5.3-4.6 4.3zM274.7 442.4c-3.7 4.7-3.8 5.6-.9 8 1.8 1.5 2.8 1.5 4 .3 1.3-1.3 1.3-1.8 0-1.8-2.2 0-2.4-6.9 0-8.2 1.2-.7 1.3-.3.7 1.5-.7 1.8-.4 2.4.7 2.1 1-.4 1.9-1.6 1.9-2.7 0-3.7-3.4-3.2-6.4.8zM282 446.8c-2.5 6.8-1.2 8 2.2 2.2 1.9-3.2 3.5-4.3 5.3-3.7 1.8.4 2.7 0 2.7-1.3 0-1.2-1.6-2.1-4.1-2.2-3.6 0-4.6.7-6.1 5zM240.6 460.5c0 .4 10.2 4.4 22.7 8.8 24.4 8.4 36.4 9.9 15.6 1.9-14.6-5.6-38.3-12.2-38.3-10.7zM249.6 459.7c1.5 1.5 35.2 9.7 39.3 9.7 5.4 0 6.3-2.5 1.5-3.5-21.5-4.7-42.6-7.8-40.8-6.2zM215.6 494.5c-3.2 2.1-.4 5.4 7.7 9.4 10.3 5 16.5 6.8 19 5.3 1.6-1 1.3-1.9-.9-4.4-5.8-6.3-22-12.7-25.8-10.3zm15.7 7.2c7.1 3.5 10 6.8 4.3 4.6-5.3-1.9-18.6-8.8-18.6-9.4.1-1.2 8 1.6 14.3 4.8zM204.8 529.3c-.6.6-1 3.4-1 6 0 6.2 3.4 6 4.1-.1.6-4.3-1.3-7.7-3.1-5.9z"/><path class="st10" d="M304.5 344.2s38.3 28 38.3 30.9 11.8 10.3 13.3 17.7c1.5 7.4 5.9 30.9 7.4 41.2 1.5 10.3 1.5 39.8 5.9 48.6 4.4 8.8 22.1 38.3 22.1 41.2 0 2.9-2.9 14.7 0 20.6s11.8 13.3 11.8 16.2c0 2.9 5.9 13.3 4.4 16.2-1.5 2.9-11.8 19.1-20.6 22.1-8.8 2.9-19.1 4.4-20.6 2.9-1.5-1.5-7.4-5.9-7.4-5.9s0-13.3-2.9-17.7-13.3-29.5-13.3-29.5-8.8 5.9-14.7 7.4-35.3 1.5-35.3 1.5H290s11.8-79.4 14-88.3c2.2-8.9 2.2-45.7.7-54.6-1.5-8.8-8.8-54.5-8.8-54.5l8.6-16z"/><g><path d="M340.4 379.6c-6.4 28.3-4 57.2-5 86-.5 13.7-3.2 27.5-.2 41 3 13.4 9.9 26.5 7.7 40.7-.3 1.9 2.6 2.7 2.9.8 1.9-12.2-2.3-23.4-5.7-34.9-2.1-7.2-3.6-14.4-3.4-22 .2-7.3 1.2-14.5 1.5-21.8 1.4-29.7-1.7-59.7 5-88.9.6-2-2.3-2.8-2.8-.9z"/></g><g><path d="M354.7 536.1c10.4-7.9 13.8-20.3 16.6-32.5.4-1.9-2.5-2.7-2.9-.8-2.6 11.3-5.5 23.4-15.2 30.7-1.5 1.1 0 3.7 1.5 2.6z"/></g><g><path d="M352.4 550.6c12-1.5 23.4-5.4 33.8-11.6 1.7-1 .2-3.6-1.5-2.6-10 5.9-20.8 9.7-32.3 11.1-1.9.3-1.9 3.3 0 3.1z"/></g><g><path d="M360 569.2c10.8-3.6 19.5-11.1 24.6-21.3.9-1.7-1.7-3.2-2.6-1.5-4.7 9.5-12.7 16.6-22.8 19.9-1.8.7-1 3.6.8 2.9z"/></g><path class="st3" d="M231.6 318.4h-11.8l-51.1 24.2s-31.4 70-35.8 83.3c-4.4 13.3-16.2 64.8-16.2 67.8s-7.4 38.3-7.4 38.3l11.8 14.7s16.2 2.9 17.7 2.9 8.8-30.9 8.8-30.9 4.4 1.5 7.4-22.1c2.9-23.6 1.5-66.3 7.4-81 5.9-14.7 30.9-51.5 30.9-51.5l19.1-19.1 11.8-7.4 7.4-19.2z"/><path d="M367.1 188.8s14.7-1.5 14.7 0 2.9 13.3 2.9 13.3l-10.3 5.9-7.3-19.2z" fill="#008fc9" stroke="#000" stroke-width="3" stroke-miterlimit="10"/><path class="st3" d="M216.9 336.1c-1.4.5 2.9-20.6 28-26.5s50.1 16.2 50.1 16.2 20.6 30.9 7.4 61.9c0 0-7.4-32.4-17.7-38.3-10.3-5.9-45.7-19.1-45.7-19.1s-13.3 2.8-22.1 5.8z"/><path class="st15" d="M250 302.9l-8.8 29.5-17.7 4.4s-13.3 26.5 23.6 36.8 49-10.6 49-10.6l-9.3-14.5 17.7-45.7H250z"/><path d="M256.6 159.3s-8.8-7.4-13.3-2.9-1.5 10.3-1.5 10.3l14.8-7.4z" fill="#c1035f" stroke="#000" stroke-width="3" stroke-miterlimit="10"/><path class="st15" d="M349.4 290.4s16.2-5.9 17.7-23.6c.1-1.3.1-2.4.1-3.4-.7-13.2-13.9-6.8-13.9-6.8l-6.1 34.1 2.2-.3z"/><path class="st7" d="M116.5 513.9c-.4 1-.7.3-.7-1.8s.3-2.8.7-1.9c.3 1.1.3 2.9 0 3.7zM118.5 521.2c-1.3 3.2-1.5 3.2-1.5.4-.1-1.6.3-3.5.9-4 1.8-1.8 2.1 0 .6 3.6zM121.9 528.7c-1.2 4-1.8 4.9-2.8 4-1-1.2 1-7.2 2.5-7.2.8-.1.9 1.4.3 3.2zM127.2 533.5c0 2.4-.9 3.7-2.4 3.7-1.6 0-2.1-.7-1.5-2.4.4-1.3.9-2.9.9-3.7s.7-1.3 1.5-1.3c.9 0 1.5 1.7 1.5 3.7zM134.6 532.6c0 2.5-1.8 6-3.1 6-1.5 0-1.8-4.9-.3-6.3 1.3-1.4 3.4-1.3 3.4.3zM139.6 536c-1.2 4-1.8 4.9-2.8 4-1-1.2 1-7.2 2.5-7.2.7 0 .9 1.5.3 3.2z"/><g><path d="M236.9 164.1c-9.9-1.6-18.9 2-27.8 6-1.8.8-.2 3.4 1.5 2.6 8.1-3.6 16.5-7.1 25.5-5.7 1.9.3 2.7-2.6.8-2.9z"/></g><g><path d="M205 195.6c3.3-5.7 6.9-12.1 12.4-15.8 5.2-3.5 11.2-6 16.7-8.9 1.7-.9.2-3.5-1.5-2.6-6.1 3.2-13.2 5.9-18.7 10.3-5 4-8.5 10-11.6 15.5-.9 1.7 1.7 3.2 2.7 1.5z"/></g><g><defs><path id="SVGID_3_" d="M381.1 188.1c-3.7 2.2 25-14.7 44.2-5.9 19.1 8.8 38.3 32.4 38.3 61.9 2.9 29.5-11.8 63.3 0 81l2.9 4.4s-16.2-8.8-17.7-14.7c-1.5-5.9-1.5 26.5-35.3 39.8-2.9 10.3-2.9 33.9-2.9 33.9s-38.3-26.5-32.4-73.6c0 0-10.3 20.6-7.4 44.2 0 0-22.1-36.8 1.5-75.1s25-53 11.8-82.5l-3-13.4z"/></defs><clipPath id="SVGID_4_"><use xlink:href="#SVGID_3_" overflow="visible"/></clipPath><path d="M375.9 256.5s-1.5 33.9 0 33.9 32.4 17.7 33.9 19.1c1.5 1.5 19.1 1.5 19.1 1.5l42.7-4.4v-91.3l-8.8-54.5-53 4.4-26.5 10.3s-2.9 53-2.9 56-4.5 25-4.5 25z" clip-path="url(#SVGID_4_)" fill="#fff0b8"/><path d="M372.2 273.5l22.1-10.3S381 286.8 384 286.8s19.1-17.7 19.1-17.7l-4.4 26.5 8.8-16.2v4.4l11.8-20.6v42.7s14.7-22.1 14.7-42.7 8.8 23.6 8.8 23.6 8.8-22.1 7.4-35.3c-1.5-13.3 11.8 36.8 11.8 54.5 0 17.7 10.3 11.8 11.8 19.1 1.5 7.4 2.9 41.2 2.9 44.2 0 2.9-47.1 38.3-50.1 39.8-2.9 1.5-30.9 2.9-32.4 0s-36.8-53-38.3-54.5 2.9-63.3 2.9-63.3l13.4-17.8z" clip-path="url(#SVGID_4_)" fill="#00b7d7"/><path d="M451 313.1c-.2-5.3-.3-10.6-.1-16 .1-1.9-2.9-1.9-3 0-.1 5.3-.1 10.6.1 16 .1 1.9 3.1 1.9 3 0zM407.2 237.5c-.2-7.4-.5-15.2-4.9-21.5-3.7-5.4-9-11-15.4-12.9-1.4-.4-2 1.8-.6 2.2 6 1.8 11.9 7.9 15 13.2 3.3 5.8 3.5 12.5 3.7 19 0 1.4 2.2 1.5 2.2 0zM428.1 323c-1.8 5.8-5.3 10.4-8.3 15.5-3 5-4.9 10.3-5.7 16.1-.3 1.9 2.6 2.7 2.9.8 1-6.7 3.5-12.4 7.1-18 2.8-4.4 5.5-8.6 7-13.6.4-1.9-2.5-2.6-3-.8z"/><path d="M405.8 210.7c-4.6-4.9-10.6-7.7-17.3-8.1-1.4-.1-1.4 2.2 0 2.3 6.1.4 11.5 3 15.7 7.5 1 1 2.6-.6 1.6-1.7z"/><use xlink:href="#SVGID_3_" overflow="visible" fill="none" stroke="#000" stroke-width="3" stroke-miterlimit="10"/></g><g><path d="M124.7 138.5c6.8-1.5 14.2-2.4 20.7-4.9 5.6-2.2 10.3-6.2 14.8-10.1 1.5-1.3-.7-3.4-2.1-2.1-5.1 4.4-10.1 8.5-16.7 10.4-5.7 1.7-11.7 2.6-17.5 3.8-1.9.4-1.1 3.3.8 2.9z"/></g><g><path d="M143.8 523.4c-9.9-4.7-19.7-9.9-23.6-20.9-.6-1.8-3.5-1-2.9.8 4.1 11.8 14.2 17.6 24.9 22.7 1.9.8 3.4-1.7 1.6-2.6z"/></g><g><path class="st15" d="M216.9 240.3s14.7 54.5 17.7 58.9c2.9 4.4 19 13.1 36 12.4 17-.6 48-6.5 48-6.5s22.1-16.2 23.6-25 4.4-67.8 4.4-67.8L331.7 180l-36.8-1.5-13.3-5.9-28-5.9-29.5 28-7.2 45.6z"/><path d="M230.1 202s8.8-2.9 14.7-1.5 22.1 5.9 22.1 5.9v8.8c0 .1-23.5-13.2-36.8-13.2zM289 210.9s4.4 2.9 11.8 2.9 13.3-1.5 20.6 0c7.4 1.5 16.2 11.8 16.2 11.8s-7.4-5.9-16.2-5.9-23.6 2.9-30.9-1.5c-4.4-2.9-1.5-7.3-1.5-7.3zM236.2 227.9c0 .7 1.3 1.5 3.1 1.5 1.6 0 4.3.7 5.9 1.5 1.5.9 2.8 1 2.8.3 0-1.5-6.5-4.7-9.6-4.7-1.2-.1-2.2.5-2.2 1.4zM226.3 229.8c-.4.7.3 2.4 1.5 3.7 1.9 1.9 2.8 1.9 4.6.3 3.5-2.8 2.8-5.6-1.5-5.3-2.1 0-4.1.7-4.6 1.3zM267.1 242.5c0 1.9 4.1 4.9 6 4.3 1.2-.4.9-1.3-.7-3.1-2.8-2.7-5.3-3.3-5.3-1.2z"/><path d="M231.8 243.4c0 .4.9 2.7 2.1 4.9 1 2.2 2.4 8.5 2.7 14.3 1 13.7 3.2 18 11.3 22.1 19.9 10 33 8 48.8-7.4 5.4-5.3 11.2-9.6 13.3-9.9 6.5-.7 2.5-3.2-4.7-2.8-5.6.3-9.1-.7-16.9-4.7-5.6-2.8-13.3-5.4-17.4-6.2-4-.6-9.6-1.9-12.4-3.1-2.7-1.2-8-2.1-11.5-2.1-4.3 0-8.1-1-10.9-3.1-2.5-1.6-4.4-2.6-4.4-2zm42.7 18.2c9.9 3.4 18.9 6 20 6 3.2 0-3.1 8-10 12.7-5.2 3.5-6.5 3.8-16.2 3.2-12.5-.9-22.1-5-25.3-11.2-1.8-3.4-3.1-12.1-2.5-17.1.3-2.4 16.3.5 34 6.4z" fill="#480002"/><path d="M304.1 246.2c1.6 1.3 14.7 2.2 13.8.9-.4-.9-4-1.5-7.7-1.5s-6.4.3-6.1.6z"/><path d="M259.6 233s1.5-14.7-5.9-17.7c-7.4-2.9-16.2-5.9-23.6-4.4s2.9 8.8 2.9 8.8 17.7 5.9 19.1 5.9 7.5 7.4 7.5 7.4z" fill="#ff5cac"/><path d="M338.1 249s-.5-14.6-12.3-17.5-28-5.9-36.8 11.8l13.3-4.4h11.8c1.5 0 11.8 5.9 11.8 5.9l7.4 5.9h4.4l.4-1.7z" fill="#00b7d7"/><path d="M255.9 269.1s26.5 5.9 32.4 4.4c5.9-1.5 3.7.4 3.7.4s-.8 8.4-36.1-4.8z" fill="#bfa7af"/><path d="M289.8 242.5s17.7-16.2 36.8-1.5c4.4-2.9 5.9-1.5 5.9-1.5l-2.9 2.9 14.7-1.5-11.8 7.4 14.7 1.5-13.3 4.4c0 .1-16.2-20.5-44.1-11.7zM223.5 226.3c1.5 0 10.3-4.4 19.1-1.5s13.3 5.9 14.7 8.8l1.5 1.5s-1.5-16.2-17.7-17.7h-7.4l-4.4-4.4 2.9 4.4s-10.3-5.9-8.8-4.4 4.4 5.9 4.4 5.9l-2.9 1.5s-8.8-4.4-7.4-2.9 6 8.8 6 8.8zM270.6 232.2s-8.8 2.9-8.8 5.9-1.5 4.4-1.5 4.4 4.4 4.4 4.4 1.5c0-1.5-1.5-4.4 0-5.9s7.4-4.4 7.4-4.4l-1.5-1.5z"/></g><g><defs><path id="SVGID_5_" d="M294.9 178.5s20.6-13.3 35.3-2.9 23.6 32.4 25 53c1.5 20.6-8.8 67.8-17.7 97.2-5.9 28-2.9 56-2.9 56s-17.7 2.9-16.2-36.8c.2-5.7.9-11.3 1.8-16.7 5.6-31.9 21.8-58.9 21.8-96.7 0-44.2-14.7-48.6-35.3-48.6-20.6-.1-11.8-4.5-11.8-4.5z"/></defs><clipPath id="SVGID_6_"><use xlink:href="#SVGID_5_" overflow="visible"/></clipPath><path d="M286.8 168.9l47.1-7.4s22.3 13 24.4 14.6 13.1 114.6 13.1 114.6l5.2 44.6L311 349s2.3-96.2 2.3-97.6-26.5-82.5-26.5-82.5z" clip-path="url(#SVGID_6_)" fill="#fff0b8"/><path d="M322.9 336.1l8.8-22.1 3.6 25.7s5.5 33.9 6.1 33.5c.6-.4-1.3 14.4-1.3 14.4l-26.1-2.9s-2.9-50.1-2.9-51.5c0-1.5 7.4-13.3 7.4-13.3l4.4 16.2z" clip-path="url(#SVGID_6_)" fill="#00b7d7"/><use xlink:href="#SVGID_5_" overflow="visible" fill="none" stroke="#000" stroke-width="3" stroke-miterlimit="10"/></g><g><defs><path id="SVGID_7_" d="M287.6 174.1s-15.4-17.3-35.7-12.3c-20.3 5-40.9 35.9-43.8 56.5s0 58.9 4.4 67.8 12.6 16.9 12.6 16.9.7-15.5-2.3-28.7c-2.9-13.3-5.9-28-1.5-39.8s7.4-26.5 8.8-30.9 7.4-14.7 14.7-20.6 14.8-19.2 42.8-8.9z"/></defs><clipPath id="SVGID_8_"><use xlink:href="#SVGID_7_" overflow="visible"/></clipPath><path clip-path="url(#SVGID_8_)" fill="#fff0b8" d="M179.3 149.8h114.9v135.5H179.3z"/><path d="M203.6 256.5c1.5 1.5 26.5 32.4 26.5 32.4l1.5 23.6s-13.3 5.9-14.7 1.5c-1.5-4.4-14.7-47.1-14.7-47.1l1.4-10.4z" clip-path="url(#SVGID_8_)" fill="#ff5cac"/><use xlink:href="#SVGID_7_" overflow="visible" fill="none" stroke="#000" stroke-width="3" stroke-miterlimit="10"/></g><g><path d="M357 263c2.1-.9 1.6 4.8 1.5 5.4-.2 1.1-.8 1.9-1.5 2.8-1.1 1.2-2.3 2.3-3.1 3.8-.9 1.7 1.7 3.2 2.6 1.5 1-1.8 2.8-2.9 3.9-4.6 1.2-1.8 1.4-4 1.4-6.1-.1-3.5-2.3-7.1-6.2-5.3-1.9.7-.3 3.3 1.4 2.5z"/></g><g><path d="M169.9 585.3c-.1 5.8-.3 11.7-.7 17.5-.1 1.9 2.9 1.9 3 0 .4-5.8.6-11.7.7-17.5.1-1.9-2.9-1.9-3 0z"/></g><g><path d="M179.7 596.7c1.9 0 1.9-3 0-3-2 0-2 3 0 3z"/></g><g><path d="M222.4 598.2c1.9 0 1.9-3 0-3s-1.9 3 0 3z"/></g><g><path d="M213.6 598.2c1.9 0 1.9-3 0-3-2 0-2 3 0 3z"/></g><g><path d="M226.1 589.6c2.2 1.1 4.4 2.2 6.5 3.4 1.6.9 4.8 2.2 5.9 3.7.1-.6.2-1.2.2-1.8-.9 1.1-3 1.8-4.2 2.5-1.2.7-2.5 1.4-3.7 2.1-2.3 1.5-4.6 3.1-6.6 4.9-1.5 1.3.7 3.4 2.1 2.1 2.5-2.2 5.2-4 8.1-5.7 2-1.1 4.9-2.1 6.4-3.8.4-.5.7-1.3.2-1.8-1.3-1.7-3.6-2.7-5.4-3.8-2.6-1.6-5.3-3-8.1-4.4-1.6-.8-3.1 1.8-1.4 2.6z"/></g></g></svg>